<?xml version="1.0" encoding="utf-8"?>
<!-- Generator: Adobe Illustrator 16.0.0, SVG Export Plug-In . SVG Version: 6.00 Build 0)  -->
<!DOCTYPE svg PUBLIC "-//W3C//DTD SVG 1.1//EN" "http://www.w3.org/Graphics/SVG/1.1/DTD/svg11.dtd">
<svg version="1.1" id="Layer_1" xmlns="http://www.w3.org/2000/svg" xmlns:xlink="http://www.w3.org/1999/xlink" x="0px" y="0px"
	 width="900px" height="1794.5px" viewBox="0 0 900 1794.5" enable-background="new 0 0 900 1794.5" xml:space="preserve">
<g>
	<path fill="#0061AD" d="M182.34,259.2c-9.18,0-16.56,7.38-16.56,16.56c0,9.18,7.38,16.56,16.56,16.56
		c9.18,0,16.56-7.38,16.56-16.56C198.72,266.58,191.34,259.2,182.34,259.2z"/>
	<path fill="#0061AD" d="M842.58,609.84l-22.5-55.08c-2.521-7.02-1.8-48.24-1.26-75.42c0.72-40.68,1.08-66.24-1.801-75.42
		c-8.819-27.54-26.279-50.04-48.96-65.34c20.521,0.72,39.601,10.08,52.74,26.28c2.16,2.52,5.22,3.96,8.28,3.96
		c2.34,0,4.68-0.72,6.66-2.34c4.5-3.6,5.22-10.26,1.62-14.76c-17.46-21.96-43.561-34.38-71.46-34.38c-0.181,0-0.36,0-0.721,0
		l-64.8,0.18c-0.54,0-1.08,0-1.8,0l-5.94,0.18h-0.359l0,0L342,323.1l-41.4-47.16c18.54-25.2,17.28-59.04,17.28-60.66
		c-0.18-5.4-4.68-9.9-10.08-10.08c-1.62,0-36.18-1.26-61.38,17.82l-17.28-11.88l35.1-56.52l46.44-38.52
		c3.42-2.88,4.681-7.56,3.24-11.7s-5.4-7.02-9.9-7.02h-35.46c-28.26,0-54.54,13.86-70.56,37.26L64.8,329.04
		c-9.9,14.04-10.62,32.58-1.8,47.52c8.28,13.68,23.22,21.78,39.24,21.24h29.16l27,49.681c1.8,3.42,5.4,5.579,9.18,5.579
		c3.78,0,7.38-2.159,9.18-5.579l21.6-39.601L302.04,562.5c0.72,1.08,1.08,2.16,1.08,3.42v227.16c0,5.76,4.68,10.62,10.62,10.62
		h35.46c5.04,0,9.359-3.42,10.26-8.28L405,581.939c0.54-2.699,2.88-4.5,5.94-4.5l296.46,0.181l49.319,49.319
		c1.261,1.44,1.98,3.24,1.62,5.221l-29.16,159.3c-0.54,3.06,0.181,6.3,2.34,8.64c1.98,2.34,5.04,3.78,8.101,3.78h33.66
		c4.5,0,8.64-2.88,10.08-7.2L842.76,618.3C843.48,614.88,843.48,612.18,842.58,609.84z M765.72,781.74h-13.5l26.82-146.7
		c1.62-8.64-1.08-17.46-7.2-23.94l-52.56-52.38c-0.181-0.18-0.54-0.359-0.721-0.54c-0.18-0.18-0.359-0.359-0.54-0.54l-42.84-31.319
		c-12.239-8.82-22.14-19.98-29.699-33.12c-2.881-5.04-9.36-6.84-14.4-3.96s-6.84,9.359-3.96,14.399
		c9,15.66,21.06,28.98,35.64,39.601l16.74,12.24L411.3,555.3c-12.6,0.181-24.12,8.64-26.819,21.24l-43.74,205.2h-16.38V565.38
		c0-5.58-1.62-10.979-4.681-15.479l-113.4-168.84c-1.98-3.06-5.4-4.86-9.18-4.68c-3.6,0.18-7.02,2.16-8.82,5.4l-20.88,37.98
		l-20.16-36.9c-1.44-3.96-5.4-6.66-9.9-6.66h-35.82c-8.28,0-16.38-3.96-20.7-10.98c-4.5-7.56-4.14-17.28,1.08-24.48l133.2-194.4
		c12.06-17.46,31.86-28.08,53.1-28.08h6.3l-25.38,20.88c-0.9,0.72-1.62,1.62-2.16,2.52l-41.4,66.6c-2.88,4.86-1.62,10.98,2.88,14.22
		l32.22,22.32c4.14,2.88,9.9,2.34,13.5-1.26c12.06-12.06,30.24-15.84,41.76-17.1c-1.26,11.52-5.04,29.7-17.1,41.76
		c-3.96,3.96-4.14,10.26-0.54,14.4l50.76,57.78c1.979,2.34,4.86,3.6,7.92,3.6h0.18l355.5-5.4h7.74
		c44.28,0.72,82.98,29.34,96.48,71.64c1.979,6.3,1.26,42.3,0.899,68.58c-0.899,49.86-1.08,74.521,2.7,83.7l21.06,51.479
		L765.72,781.74z"/>
</g>
<g>
	<path fill="#FFFFFF" d="M182.34,1127.82c-9.18,0-16.56,7.38-16.56,16.56s7.38,16.561,16.56,16.561c9.18,0,16.56-7.381,16.56-16.561
		C198.72,1135.2,191.34,1127.82,182.34,1127.82z"/>
	<path fill="#FFFFFF" d="M842.58,1478.46l-22.5-55.08c-2.521-7.02-1.8-48.24-1.26-75.42c0.72-40.68,1.08-66.24-1.801-75.42
		c-8.819-27.54-26.279-50.04-48.96-65.34c20.521,0.72,39.601,10.08,52.74,26.279c2.16,2.521,5.22,3.961,8.28,3.961
		c2.34,0,4.68-0.721,6.66-2.34c4.5-3.601,5.22-10.261,1.62-14.761c-17.46-21.96-43.561-34.38-71.46-34.38c-0.181,0-0.36,0-0.721,0
		l-64.8,0.18c-0.54,0-1.08,0-1.8,0l-5.94,0.181h-0.359l0,0L342,1191.72l-41.4-47.16c18.54-25.199,17.28-59.039,17.28-60.659
		c-0.18-5.4-4.68-9.9-10.08-10.08c-1.62,0-36.18-1.261-61.38,17.819l-17.28-11.879l35.1-56.521l46.44-38.521
		c3.42-2.879,4.681-7.56,3.24-11.699c-1.44-4.141-5.4-7.021-9.9-7.021h-35.46c-28.26,0-54.54,13.86-70.56,37.261L64.8,1197.66
		c-9.9,14.04-10.62,32.58-1.8,47.521c8.28,13.68,23.22,21.779,39.24,21.239h29.16l27,49.681c1.8,3.42,5.4,5.579,9.18,5.579
		c3.78,0,7.38-2.159,9.18-5.579l21.6-39.601l103.68,154.62c0.72,1.08,1.08,2.16,1.08,3.42v227.16c0,5.76,4.68,10.62,10.62,10.62
		h35.46c5.04,0,9.359-3.42,10.26-8.28L405,1450.56c0.54-2.699,2.88-4.5,5.94-4.5l296.46,0.181l49.319,49.319
		c1.261,1.44,1.98,3.24,1.62,5.221l-29.16,159.3c-0.54,3.06,0.181,6.3,2.34,8.64c1.98,2.34,5.04,3.78,8.101,3.78h33.66
		c4.5,0,8.64-2.88,10.08-7.2l59.399-178.38C843.48,1483.5,843.48,1480.8,842.58,1478.46z M765.72,1650.36h-13.5l26.82-146.7
		c1.62-8.64-1.08-17.46-7.2-23.94l-52.56-52.38c-0.181-0.18-0.54-0.359-0.721-0.54c-0.18-0.18-0.359-0.359-0.54-0.54l-42.84-31.319
		c-12.239-8.82-22.14-19.98-29.699-33.12c-2.881-5.04-9.36-6.84-14.4-3.96s-6.84,9.359-3.96,14.399
		c9,15.66,21.06,28.98,35.64,39.601l16.74,12.24l-268.2-0.181c-12.6,0.181-24.12,8.64-26.819,21.24l-43.74,205.2h-16.38V1434
		c0-5.58-1.62-10.979-4.681-15.479l-113.4-168.84c-1.98-3.061-5.4-4.86-9.18-4.681c-3.6,0.181-7.02,2.16-8.82,5.399l-20.88,37.98
		l-20.16-36.9c-1.44-3.959-5.4-6.659-9.9-6.659h-35.82c-8.28,0-16.38-3.96-20.7-10.98c-4.5-7.56-4.14-17.28,1.08-24.479l133.2-194.4
		c12.06-17.46,31.86-28.08,53.1-28.08h6.3l-25.38,20.881c-0.9,0.719-1.62,1.619-2.16,2.52l-41.4,66.6
		c-2.88,4.86-1.62,10.98,2.88,14.221l32.22,22.319c4.14,2.88,9.9,2.341,13.5-1.26c12.06-12.06,30.24-15.84,41.76-17.101
		c-1.26,11.521-5.04,29.701-17.1,41.761c-3.96,3.96-4.14,10.26-0.54,14.399l50.76,57.78c1.979,2.34,4.86,3.601,7.92,3.601h0.18
		l355.5-5.4h7.74c44.28,0.72,82.98,29.34,96.48,71.64c1.979,6.3,1.26,42.3,0.899,68.58c-0.899,49.86-1.08,74.521,2.7,83.7
		l21.06,51.479L765.72,1650.36z"/>
</g>
</svg>
