<?xml version="1.0" encoding="utf-8"?>
<!-- Generator: Adobe Illustrator 16.0.0, SVG Export Plug-In . SVG Version: 6.00 Build 0)  -->
<!DOCTYPE svg PUBLIC "-//W3C//DTD SVG 1.1//EN" "http://www.w3.org/Graphics/SVG/1.1/DTD/svg11.dtd">
<svg version="1.1" id="Layer_1" xmlns="http://www.w3.org/2000/svg" xmlns:xlink="http://www.w3.org/1999/xlink" x="0px" y="0px"
	 width="900px" height="1916.568px" viewBox="0 0 900 1916.568" enable-background="new 0 0 900 1916.568" xml:space="preserve">
<g>
	<path fill="#0061AD" d="M786.06,113.94C732.24,60.3,657.54,30.6,575.64,30.6c-131.76,0-268.92,61.56-376.2,168.84
		C128.52,270.36,77.04,355.68,50.4,446.22c-13.14,44.82-19.8,88.38-19.8,129.42c0,83.16,28.8,155.88,83.34,210.42
		c53.82,53.82,128.52,83.342,210.42,83.342c131.76,0,268.92-61.562,376.198-168.842c70.92-70.92,122.4-156.238,149.04-246.778
		C862.74,408.96,869.4,365.4,869.4,324.36C869.4,241.38,840.6,168.48,786.06,113.94z M823.32,446.22
		c-25.2,86.04-74.34,167.4-142.021,235.08C580.68,781.92,447.12,842.04,324.54,842.04c-75.78,0-141.84-26.101-191.16-75.42
		C84.06,717.3,57.96,651.24,57.96,575.46c0-38.52,6.3-79.38,18.72-121.68c25.2-86.22,74.34-167.4,142.02-235.08
		C319.32,118.08,452.88,57.96,575.46,57.96c75.78,0,141.84,26.1,191.16,75.42c49.32,49.32,75.42,115.38,75.42,191.16
		C842.04,362.88,835.74,403.92,823.32,446.22z"/>
	<path fill="#0061AD" d="M633.78,207c-7.38-1.8-14.761,2.7-16.562,9.9C559.98,447.48,507.24,442.08,451.26,436.5
		c-77.398-7.92-136.62,4.68-195.3,240.12c-1.8,7.38,2.7,14.76,9.9,16.56c1.08,0.182,2.16,0.36,3.24,0.36
		c6.12,0,11.7-4.14,13.32-10.44c57.24-230.58,110.16-225.18,165.96-219.6c77.4,7.92,136.62-4.68,195.3-240.12
		C645.66,216.18,641.16,208.8,633.78,207z"/>
</g>
<g>
	<path fill="#FFFFFF" d="M786.06,1074.939c-53.818-53.641-128.52-83.341-210.42-83.341c-131.76,0-268.92,61.562-376.2,168.841
		c-70.92,70.92-122.4,156.239-149.04,246.779c-13.14,44.82-19.8,88.38-19.8,129.42c0,83.16,28.8,155.881,83.34,210.42
		c53.82,53.82,128.52,83.342,210.42,83.342c131.76,0,268.92-61.562,376.198-168.842c70.92-70.92,122.4-156.238,149.04-246.778
		c13.142-44.82,19.802-88.38,19.802-129.421C869.4,1202.38,840.6,1129.48,786.06,1074.939z M823.32,1407.22
		c-25.2,86.04-74.34,167.4-142.021,235.08c-100.62,100.62-234.18,160.74-356.76,160.74c-75.78,0-141.84-26.101-191.16-75.42
		c-49.32-49.32-75.42-115.38-75.42-191.16c0-38.521,6.3-79.38,18.72-121.681c25.2-86.22,74.34-167.399,142.02-235.079
		c100.62-100.62,234.18-160.74,356.76-160.74c75.78,0,141.84,26.101,191.16,75.42c49.32,49.32,75.42,115.38,75.42,191.16
		C842.04,1323.88,835.74,1364.92,823.32,1407.22z"/>
	<path fill="#FFFFFF" d="M633.78,1168c-7.38-1.8-14.761,2.7-16.562,9.9c-57.238,230.58-109.979,225.18-165.96,219.6
		c-77.398-7.92-136.62,4.68-195.3,240.12c-1.8,7.38,2.7,14.76,9.9,16.56c1.08,0.182,2.16,0.36,3.24,0.36
		c6.12,0,11.7-4.14,13.32-10.44c57.24-230.579,110.16-225.18,165.96-219.6c77.4,7.92,136.62-4.68,195.3-240.12
		C645.66,1177.18,641.16,1169.8,633.78,1168z"/>
</g>
</svg>
