<?xml version="1.0" encoding="utf-8"?>
<!-- Generator: Adobe Illustrator 16.0.0, SVG Export Plug-In . SVG Version: 6.00 Build 0)  -->
<!DOCTYPE svg PUBLIC "-//W3C//DTD SVG 1.1//EN" "http://www.w3.org/Graphics/SVG/1.1/DTD/svg11.dtd">
<svg version="1.1" id="Layer_1" xmlns="http://www.w3.org/2000/svg" xmlns:xlink="http://www.w3.org/1999/xlink" x="0px" y="0px"
	 width="900px" height="1796.453px" viewBox="0 0 900 1796.453" enable-background="new 0 0 900 1796.453" xml:space="preserve">
<g>
	<path fill="#0061AD" d="M128.52,748.98h3.42c57.6,0,104.58-46.801,104.58-104.58c0-27.36-21.96-64.261-45-103.141
		c-25.02-42.12-50.94-85.68-50.94-118.62c0-4.68-3.78-8.64-8.64-8.64h-3.42c-4.68,0-8.64,3.78-8.64,8.64
		c0,32.94-25.92,76.5-50.94,118.62c-23.22,39.061-45,75.78-45,103.141C23.94,702.18,70.92,748.98,128.52,748.98z M83.88,550.26
		c18.18-30.42,36.54-61.74,46.44-90.54c9.72,28.8,28.26,59.94,46.44,90.54c21.96,36.9,42.66,71.82,42.66,94.32
		c0,48.06-39.24,87.3-87.3,87.3h-3.42c-48.06,0-87.3-39.06-87.3-87.3C41.22,621.9,61.92,587.16,83.88,550.26z"/>
	<path fill="#0061AD" d="M873.36,286.2c-3.24-3.24-82.261-79.38-181.261-70.56c-49.319,4.32-94.5,29.16-134.46,73.8
		c21.24-71.64,56.521-122.58,105.12-151.74c74.7-44.82,156.42-21.6,157.32-21.24c4.5,1.26,9.359-1.26,10.62-5.76
		c1.26-4.5-1.261-9.36-5.761-10.62c-3.6-1.08-89.46-25.56-170.819,22.86c-53.82,32.22-92.34,88.38-114.66,167.22
		c-22.32-79.02-60.84-135.18-114.66-167.22c-81.36-48.6-167.22-23.94-170.82-22.86c-4.5,1.44-7.2,6.12-5.76,10.62
		c1.26,4.5,6.12,7.2,10.62,5.76c0.9-0.18,82.44-23.4,157.32,21.24c48.6,29.16,83.88,80.28,105.12,152.1
		c-40.141-44.82-85.32-69.66-134.82-74.16c-99-8.82-178.02,67.32-181.26,70.56c-3.42,3.24-3.42,8.82-0.18,12.24
		c3.24,3.42,8.82,3.42,12.24,0.18c0.72-0.72,76.5-73.8,167.76-65.7c45.181,3.96,86.761,27.18,124.2,69.12
		c-41.58-15.84-81.54-16.56-118.979-1.98C283.14,341.82,234.18,492.12,232.02,498.6c-1.44,4.5,1.08,9.36,5.58,10.801
		c4.5,1.439,9.36-1.08,10.8-5.58c0.54-1.44,48.6-149.041,147.96-187.74c19.8-7.74,40.5-10.44,61.739-8.64
		c-11.88,8.82-19.619,22.86-19.619,38.88c0,26.64,21.779,48.42,48.42,48.42c1.979,0,3.96-0.18,5.939-0.36
		c-1.08,3.96-1.8,8.28-1.8,12.601c0,23.579,17.1,43.38,39.6,47.52l1.08,335.7H32.58c-4.68,0-8.64,3.78-8.64,8.64
		c0,4.86,3.78,8.64,8.64,8.64h507.6l0,0h298.44c4.68,0,8.64-3.779,8.64-8.64c0-4.859-3.779-8.64-8.64-8.64h-289.8l-1.08-335.521
		c22.68-3.96,39.96-23.76,39.96-47.52c0-4.32-0.72-8.641-1.8-12.6c1.979,0.18,3.96,0.36,5.939,0.36
		c26.641,0,48.42-21.78,48.42-48.42c0-15.84-7.74-30.06-19.62-38.88c21.42-1.98,41.94,0.9,61.74,8.64
		c99.36,38.7,147.601,186.3,147.96,187.74c1.26,3.6,4.5,5.94,8.28,5.94c0.899,0,1.8-0.181,2.7-0.36c4.5-1.44,7.02-6.3,5.58-10.8
		C844.92,492.479,795.78,342,688.68,300.24c-37.62-14.58-77.58-13.86-119.34,2.16c37.26-41.94,79.021-65.16,124.021-69.12
		c91.079-8.1,167.04,64.98,167.939,65.7c3.42,3.24,8.82,3.24,12.24-0.18C876.78,295.02,876.78,289.62,873.36,286.2z M455.58,346.32
		c0-17.1,14.04-31.14,31.14-31.14c17.101,0,31.141,14.04,31.141,31.14s-14.04,31.14-31.141,31.14
		C469.62,377.46,455.58,363.42,455.58,346.32z M539.28,438.12c-17.101,0-31.141-14.04-31.141-31.14
		c0-17.101,14.04-31.141,31.141-31.141c17.1,0,31.14,14.04,31.14,31.141C570.42,424.08,556.56,438.12,539.28,438.12z M591.84,377.46
		c-17.1,0-31.14-14.04-31.14-31.14s14.04-31.14,31.14-31.14s31.14,14.04,31.14,31.14C622.98,363.42,609.12,377.46,591.84,377.46z"/>
</g>
<g>
	<path fill="#FFFFFF" d="M128.52,1647.224h3.42c57.6,0,104.58-46.801,104.58-104.58c0-27.36-21.96-64.261-45-103.141
		c-25.02-42.12-50.94-85.68-50.94-118.62c0-4.68-3.78-8.64-8.64-8.64h-3.42c-4.68,0-8.64,3.78-8.64,8.64
		c0,32.94-25.92,76.5-50.94,118.62c-23.22,39.061-45,75.78-45,103.141C23.94,1600.423,70.92,1647.224,128.52,1647.224z
		 M83.88,1448.503c18.18-30.42,36.54-61.74,46.44-90.54c9.72,28.8,28.26,59.94,46.44,90.54c21.96,36.9,42.66,71.82,42.66,94.32
		c0,48.06-39.24,87.3-87.3,87.3h-3.42c-48.06,0-87.3-39.06-87.3-87.3C41.22,1520.144,61.92,1485.403,83.88,1448.503z"/>
	<path fill="#FFFFFF" d="M873.36,1184.443c-3.24-3.24-82.261-79.381-181.261-70.561c-49.319,4.32-94.5,29.16-134.46,73.801
		c21.24-71.641,56.521-122.58,105.12-151.74c74.7-44.82,156.42-21.6,157.32-21.24c4.5,1.26,9.359-1.26,10.62-5.76
		c1.26-4.5-1.261-9.36-5.761-10.62c-3.6-1.08-89.46-25.56-170.819,22.86c-53.82,32.22-92.34,88.379-114.66,167.22
		c-22.32-79.021-60.84-135.181-114.66-167.22c-81.36-48.601-167.22-23.94-170.82-22.86c-4.5,1.44-7.2,6.12-5.76,10.62
		c1.26,4.5,6.12,7.199,10.62,5.76c0.9-0.18,82.44-23.4,157.32,21.24c48.6,29.16,83.88,80.279,105.12,152.1
		c-40.141-44.82-85.32-69.66-134.82-74.16c-99-8.82-178.02,67.32-181.26,70.561c-3.42,3.24-3.42,8.82-0.18,12.24
		c3.24,3.42,8.82,3.42,12.24,0.18c0.72-0.721,76.5-73.801,167.76-65.7c45.181,3.96,86.761,27.181,124.2,69.12
		c-41.58-15.84-81.54-16.561-118.979-1.98c-107.1,41.76-156.061,192.061-158.22,198.54c-1.44,4.5,1.08,9.36,5.58,10.801
		c4.5,1.439,9.36-1.08,10.8-5.58c0.54-1.44,48.6-149.04,147.96-187.74c19.8-7.74,40.5-10.44,61.739-8.64
		c-11.88,8.819-19.619,22.859-19.619,38.879c0,26.641,21.779,48.42,48.42,48.42c1.979,0,3.96-0.18,5.939-0.359
		c-1.08,3.96-1.8,8.28-1.8,12.601c0,23.579,17.1,43.38,39.6,47.52l1.08,335.7H32.58c-4.68,0-8.64,3.78-8.64,8.64
		c0,4.86,3.78,8.64,8.64,8.64h507.6l0,0h298.44c4.68,0,8.64-3.779,8.64-8.64c0-4.859-3.779-8.64-8.64-8.64h-289.8l-1.08-335.521
		c22.68-3.96,39.96-23.76,39.96-47.52c0-4.32-0.72-8.641-1.8-12.601c1.979,0.181,3.96,0.36,5.939,0.36
		c26.641,0,48.42-21.78,48.42-48.42c0-15.84-7.74-30.06-19.62-38.88c21.42-1.98,41.94,0.9,61.74,8.64
		c99.36,38.7,147.601,186.3,147.96,187.74c1.26,3.6,4.5,5.94,8.28,5.94c0.899,0,1.8-0.181,2.7-0.36c4.5-1.44,7.02-6.3,5.58-10.8
		c-1.98-6.301-51.12-156.78-158.221-198.541c-37.62-14.579-77.58-13.859-119.34,2.16c37.26-41.939,79.021-65.16,124.021-69.119
		c91.079-8.101,167.04,64.979,167.939,65.699c3.42,3.24,8.82,3.24,12.24-0.18C876.78,1193.264,876.78,1187.863,873.36,1184.443z
		 M455.58,1244.563c0-17.1,14.04-31.14,31.14-31.14c17.101,0,31.141,14.04,31.141,31.14c0,17.101-14.04,31.141-31.141,31.141
		C469.62,1275.703,455.58,1261.663,455.58,1244.563z M539.28,1336.363c-17.101,0-31.141-14.04-31.141-31.14
		c0-17.101,14.04-31.141,31.141-31.141c17.1,0,31.14,14.04,31.14,31.141C570.42,1322.323,556.56,1336.363,539.28,1336.363z
		 M591.84,1275.703c-17.1,0-31.14-14.04-31.14-31.141c0-17.1,14.04-31.14,31.14-31.14s31.14,14.04,31.14,31.14
		C622.98,1261.663,609.12,1275.703,591.84,1275.703z"/>
</g>
</svg>
