<?xml version="1.0" encoding="utf-8"?>
<!-- Generator: Adobe Illustrator 16.0.0, SVG Export Plug-In . SVG Version: 6.00 Build 0)  -->
<!DOCTYPE svg PUBLIC "-//W3C//DTD SVG 1.1//EN" "http://www.w3.org/Graphics/SVG/1.1/DTD/svg11.dtd">
<svg version="1.1" id="Layer_1" xmlns="http://www.w3.org/2000/svg" xmlns:xlink="http://www.w3.org/1999/xlink" x="0px" y="0px"
	 width="900px" height="1934.564px" viewBox="0 0 900 1934.564" enable-background="new 0 0 900 1934.564" xml:space="preserve">
<path fill="#0061AD" d="M680.939,351.4c8.641-53.64-24.479-98.82-44.819-120.78c-3.061-3.24-5.94-7.02-9-11.52
	c-1.98-2.88-4.32-6.12-7.021-9.36c1.801-1.98,2.7-4.86,1.801-7.74c-11.16-36.54-36.9-42.12-47.521-42.84
	c-1.8-1.98-3.06-3.24-3.42-3.42c-0.18-0.18-0.36-0.36-0.54-0.36c2.16-14.04-2.34-25.74-7.74-33.84
	c-4.859-7.38-15.84-7.2-20.699,0.18c-2.881,4.5-2.7,10.44,0.72,14.4c9.18,10.98,10.62,26.46,10.62,26.46
	c-32.4,12.42-37.801,40.5-38.34,55.62c-0.181,3.6,2.159,6.66,5.22,7.92c-3.96,2.52-8.82,5.76-14.94,10.8
	c-88.56,26.28-86.22,125.28-83.88,152.64c-89.28,39.24-86.939,133.56-84.06,161.1c-9.721,3.42-27.36,10.8-44.28,23.399
	c-33.66,24.66-69.3,64.44-48.24,153.181c-1.26,6.3-6.84,30.6-24.12,46.439c-2.88,2.7-3.6,7.021-1.8,10.44
	c1.8,3.42,5.76,5.399,9.54,4.68c22.86-4.5,63.36-10.439,75.06-7.02l1.08,0.359c11.88,3.42,27.72,8.101,50.4,7.021
	c0,0.359,0,0.54-0.18,0.899c-1.08,10.62-2.16,20.7-3.601,24.48c-8.1,21.42-16.92,36.54-16.92,36.72
	c-1.979,3.42-1.439,7.92,1.44,10.62c1.62,1.62,3.96,2.521,6.3,2.521c1.62,0,3.06-0.36,4.5-1.261c0.36-0.18,45-26.1,111.96-32.04
	c73.8-6.66,118.98-80.1,117.72-127.619c-1.08-36.181,43.561-67.32,43.561-67.32c0.72-0.36,17.64-10.8,31.859-33.12
	c12.961-20.34,26.101-54.9,15.12-104.22c-12.779-56.7-7.739-71.1,0.721-94.68C671.4,391.54,676.98,376.06,680.939,351.4z
	 M503.46,385.6c1.08,5.04,2.16,10.8,3.06,16.02c-4.68-3.06-9-6.66-12.96-10.62c-13.5-14.04-20.699-32.58-20.159-52.02
	c0.359-19.44,8.46-37.62,22.5-50.94c3.96-3.78,8.1-6.84,12.42-9.54c-1.98,4.86-3.78,9.72-5.58,14.22
	C491.04,323.5,498.24,359.5,503.46,385.6z M446.58,587.92c-32.4-9.9-54.9-39.78-54.9-74.52c0-43.021,35.101-78.121,78.12-78.121
	c6.66,0,13.32,0.9,19.8,2.52C454.68,491.26,447.3,550.66,446.58,587.92z M309.24,765.04l-1.08-0.36c-12.42-3.6-40.14-0.54-60.3,2.7
	c11.52-19.08,14.4-38.34,14.4-39.42c0.18-1.08,0.18-2.16-0.18-3.42c-19.44-79.38,9.9-113.58,41.22-136.44
	c21.78-16.02,45.72-22.859,45.9-22.859c4.319-1.261,7.2-5.58,6.3-10.08c0-0.36-5.22-28.62,2.16-61.74
	c9.54-43.74,35.279-73.98,76.32-90.18c3.779-1.44,6.119-5.58,5.579-9.54c0-0.36-4.5-29.88,2.521-61.92
	c9.18-41.58,32.58-67.86,69.66-78.3c1.08-0.36,2.16-0.9,3.239-1.62c2.7-2.16,5.221-4.14,7.381-5.58c-1.261,2.16-2.7,5.04-4.141,8.28
	c-12.6,3.96-24.3,10.8-34.739,20.7c-17.461,16.74-27.36,39.24-27.9,63.36c-0.54,24.12,8.46,47.16,25.02,64.62
	c6.48,6.66,13.86,12.24,21.96,16.74c-0.72,0.9-1.439,1.8-2.159,2.7c-9.9-3.24-19.98-5.04-30.601-5.04
	c-52.74,0-95.76,43.02-95.76,95.76c0,44.46,30.24,82.619,72.9,92.88c0.18,4.859,0.54,8.819,0.72,11.88
	c-4.86,2.52-9.54,5.399-13.86,8.46c-3.06-5.04-6.479-9.9-10.62-14.4c-16.199-17.46-38.34-27.72-62.1-28.62
	c-23.76-1.08-46.62,7.561-64.26,23.761c-17.46,16.2-27.72,38.34-28.62,62.1c-0.9,23.94,7.56,46.62,23.76,64.26
	c16.92,18.36,41.04,28.62,65.7,28.62c0.18,0,0.54,0,0.72,0c-0.72,4.141-1.26,7.2-1.439,8.641c0,0.18-0.181,0.18-0.181,0.359
	C335.52,772.78,321.12,768.46,309.24,765.04z M362.34,744.34c-21.6,1.44-42.84-6.84-57.6-22.68c-12.96-14.04-19.8-32.4-19.08-51.48
	c0.72-19.08,9-36.899,23.04-49.859s32.399-19.62,51.479-19.08c19.08,0.72,36.9,9,49.86,23.04c3.78,4.14,7.02,8.819,9.72,13.68
	C385.92,669.1,369.72,715.18,362.34,744.34z M663.48,348.7c-3.78,23.04-8.641,37.08-13.141,49.5
	c-8.82,24.84-15.12,42.66-1.26,104.399c18.36,82.08-36.54,116.82-39.24,118.62c-2.16,1.44-53.1,36.72-51.66,82.8
	c1.08,39.961-38.699,103.86-101.52,109.62c-41.58,3.78-74.88,14.58-95.58,23.221c2.16-4.86,4.32-10.261,6.479-16.021
	c2.16-5.939,3.24-15.479,4.681-28.8c0.54-5.22,1.08-10.98,1.979-17.28c0-0.18,0.181-0.359,0.181-0.54
	c0.18-1.08,14.58-110.16,86.399-142.74c0.181,0,0.181-0.18,0.36-0.359c0.54-0.36,1.08-0.72,1.439-1.08
	c0.36-0.36,0.9-0.72,1.261-1.08c0.359-0.36,0.54-0.9,0.899-1.44c0.36-0.54,0.54-1.08,0.721-1.619c0.18-0.54,0.18-1.08,0.18-1.62
	s0.18-1.261,0.18-1.801c0-0.18,0-0.359,0-0.54c-0.18-1.079-14.76-115.02,54.9-196.56c7.02-8.28,4.32-22.32,0-43.38
	c-4.86-24.12-11.521-57.06-1.62-83.16c5.58-14.58,9.54-24.66,12.6-31.5c1.44-1.44,2.341-3.42,2.521-5.58c2.7-5.76,3.96-8.1,4.5-8.82
	c1.26-1.98,2.52-4.14,3.96-7.02c4.32-9.18,8.1-17.64,11.52-25.38c6.301-1.26,11.341-3.06,14.4-6.3c3.06-3.24,7.92-3.6,11.52-0.9
	c8.28,6.3,15.66,4.68,22.32,2.34c3.96,4.86,7.561,9.36,10.08,12.96c3.6,5.22,7.021,9.72,10.62,13.68
	C641.34,262.3,670.86,302.44,663.48,348.7z"/>
<path fill="#FFFFFF" d="M680.939,1242.4c8.641-53.641-24.479-98.82-44.819-120.78c-3.061-3.24-5.94-7.021-9-11.521
	c-1.98-2.88-4.32-6.119-7.021-9.359c1.801-1.98,2.7-4.86,1.801-7.74c-11.16-36.54-36.9-42.12-47.521-42.84
	c-1.8-1.98-3.06-3.24-3.42-3.42c-0.18-0.18-0.36-0.36-0.54-0.36c2.16-14.04-2.34-25.739-7.74-33.84
	c-4.859-7.38-15.84-7.2-20.699,0.18c-2.881,4.5-2.7,10.44,0.72,14.4c9.18,10.979,10.62,26.46,10.62,26.46
	c-32.4,12.42-37.801,40.5-38.34,55.62c-0.181,3.6,2.159,6.659,5.22,7.92c-3.96,2.521-8.82,5.76-14.94,10.8
	c-88.56,26.28-86.22,125.28-83.88,152.641c-89.28,39.239-86.939,133.56-84.06,161.1c-9.721,3.42-27.36,10.8-44.28,23.399
	c-33.66,24.66-69.3,64.44-48.24,153.181c-1.26,6.3-6.84,30.6-24.12,46.439c-2.88,2.7-3.6,7.021-1.8,10.44
	c1.8,3.42,5.76,5.399,9.54,4.68c22.86-4.5,63.36-10.439,75.06-7.02l1.08,0.359c11.88,3.42,27.72,8.101,50.4,7.021
	c0,0.359,0,0.54-0.18,0.899c-1.08,10.62-2.16,20.7-3.601,24.48c-8.1,21.42-16.92,36.54-16.92,36.72
	c-1.979,3.42-1.439,7.92,1.44,10.62c1.62,1.62,3.96,2.521,6.3,2.521c1.62,0,3.06-0.36,4.5-1.261c0.36-0.18,45-26.1,111.96-32.04
	c73.8-6.66,118.98-80.1,117.72-127.619c-1.08-36.181,43.561-67.32,43.561-67.32c0.72-0.36,17.64-10.8,31.859-33.12
	c12.961-20.34,26.101-54.9,15.12-104.22c-12.779-56.7-7.739-71.1,0.721-94.68C671.4,1282.54,676.98,1267.061,680.939,1242.4z
	 M503.46,1276.6c1.08,5.041,2.16,10.801,3.06,16.021c-4.68-3.06-9-6.66-12.96-10.62c-13.5-14.04-20.699-32.58-20.159-52.02
	c0.359-19.44,8.46-37.621,22.5-50.94c3.96-3.78,8.1-6.84,12.42-9.54c-1.98,4.859-3.78,9.72-5.58,14.22
	C491.04,1214.5,498.24,1250.5,503.46,1276.6z M446.58,1478.92c-32.4-9.9-54.9-39.78-54.9-74.52c0-43.021,35.101-78.121,78.12-78.121
	c6.66,0,13.32,0.9,19.8,2.521C454.68,1382.26,447.3,1441.66,446.58,1478.92z M309.24,1656.04l-1.08-0.36
	c-12.42-3.6-40.14-0.54-60.3,2.7c11.52-19.08,14.4-38.34,14.4-39.42c0.18-1.08,0.18-2.16-0.18-3.42
	c-19.44-79.38,9.9-113.58,41.22-136.44c21.78-16.02,45.72-22.859,45.9-22.859c4.319-1.261,7.2-5.58,6.3-10.08
	c0-0.36-5.22-28.62,2.16-61.74c9.54-43.74,35.279-73.98,76.32-90.18c3.779-1.44,6.119-5.58,5.579-9.54
	c0-0.36-4.5-29.88,2.521-61.921c9.18-41.579,32.58-67.859,69.66-78.299c1.08-0.36,2.16-0.9,3.239-1.621
	c2.7-2.159,5.221-4.14,7.381-5.58c-1.261,2.16-2.7,5.041-4.141,8.281c-12.6,3.959-24.3,10.799-34.739,20.699
	c-17.461,16.74-27.36,39.24-27.9,63.36s8.46,47.159,25.02,64.62c6.48,6.66,13.86,12.24,21.96,16.74
	c-0.72,0.899-1.439,1.799-2.159,2.699c-9.9-3.24-19.98-5.039-30.601-5.039c-52.74,0-95.76,43.02-95.76,95.76
	c0,44.46,30.24,82.619,72.9,92.88c0.18,4.859,0.54,8.819,0.72,11.88c-4.86,2.52-9.54,5.399-13.86,8.46
	c-3.06-5.04-6.479-9.9-10.62-14.4c-16.199-17.46-38.34-27.72-62.1-28.62c-23.76-1.08-46.62,7.561-64.26,23.761
	c-17.46,16.2-27.72,38.34-28.62,62.1c-0.9,23.94,7.56,46.62,23.76,64.26c16.92,18.36,41.04,28.62,65.7,28.62c0.18,0,0.54,0,0.72,0
	c-0.72,4.141-1.26,7.2-1.439,8.641c0,0.18-0.181,0.18-0.181,0.359C335.52,1663.78,321.12,1659.46,309.24,1656.04z M362.34,1635.34
	c-21.6,1.44-42.84-6.84-57.6-22.68c-12.96-14.04-19.8-32.4-19.08-51.48c0.72-19.08,9-36.899,23.04-49.859s32.399-19.62,51.479-19.08
	c19.08,0.72,36.9,9,49.86,23.04c3.78,4.14,7.02,8.819,9.72,13.68C385.92,1560.1,369.72,1606.18,362.34,1635.34z M663.48,1239.7
	c-3.78,23.04-8.641,37.079-13.141,49.5c-8.82,24.84-15.12,42.66-1.26,104.399c18.36,82.08-36.54,116.82-39.24,118.62
	c-2.16,1.44-53.1,36.72-51.66,82.8c1.08,39.961-38.699,103.86-101.52,109.62c-41.58,3.78-74.88,14.58-95.58,23.221
	c2.16-4.86,4.32-10.261,6.479-16.021c2.16-5.939,3.24-15.479,4.681-28.8c0.54-5.22,1.08-10.98,1.979-17.28
	c0-0.18,0.181-0.359,0.181-0.54c0.18-1.08,14.58-110.16,86.399-142.74c0.181,0,0.181-0.18,0.36-0.359
	c0.54-0.36,1.08-0.72,1.439-1.08c0.36-0.36,0.9-0.72,1.261-1.08c0.359-0.36,0.54-0.9,0.899-1.44c0.36-0.54,0.54-1.08,0.721-1.619
	c0.18-0.54,0.18-1.08,0.18-1.62s0.18-1.261,0.18-1.801c0-0.18,0-0.359,0-0.54c-0.18-1.079-14.76-115.02,54.9-196.56
	c7.02-8.28,4.32-22.319,0-43.38c-4.86-24.12-11.521-57.061-1.62-83.16c5.58-14.58,9.54-24.66,12.6-31.5
	c1.44-1.439,2.341-3.42,2.521-5.58c2.7-5.76,3.96-8.1,4.5-8.82c1.26-1.979,2.52-4.14,3.96-7.02c4.32-9.18,8.1-17.641,11.52-25.38
	c6.301-1.261,11.341-3.06,14.4-6.3s7.92-3.6,11.52-0.9c8.28,6.301,15.66,4.68,22.32,2.34c3.96,4.86,7.561,9.36,10.08,12.961
	c3.6,5.219,7.021,9.719,10.62,13.68C641.34,1153.3,670.86,1193.439,663.48,1239.7z"/>
</svg>
