<?xml version="1.0" encoding="utf-8"?>
<!-- Generator: Adobe Illustrator 16.0.0, SVG Export Plug-In . SVG Version: 6.00 Build 0)  -->
<!DOCTYPE svg PUBLIC "-//W3C//DTD SVG 1.1//EN" "http://www.w3.org/Graphics/SVG/1.1/DTD/svg11.dtd">
<svg version="1.1" id="Layer_1" xmlns="http://www.w3.org/2000/svg" xmlns:xlink="http://www.w3.org/1999/xlink" x="0px" y="0px"
	 width="900px" height="1626.5px" viewBox="0 0 900 1626.5" enable-background="new 0 0 900 1626.5" xml:space="preserve">
<g>
	<path fill="#0061AD" d="M849.6,417.42c0.181-0.54,0.181-1.26,0.36-1.979l2.34-54.181V318.6c0-30.06-11.7-58.5-32.939-79.74
		c-21.24-21.24-49.681-33.12-79.74-33.12H219.6c-0.36,0-0.54,0-0.72,0l0.18-14.76c0-10.98-4.14-21.24-11.88-28.98
		c-7.74-7.74-18-12.06-28.98-12.06h-71.28c-10.8,0-20.88-4.14-28.62-11.88l-6.12-6.12c-2.7-2.7-6.84-3.6-10.44-2.16
		c-3.6,1.44-5.94,5.04-5.94,8.82v27c0,21.06,17.1,38.16,38.16,38.16h55.8L54.9,339.48c-9,12.78-9.54,29.52-1.62,43.2
		c7.56,12.42,21.24,19.8,35.64,19.26h99.54l0,0c12.06,0,23.04,6.119,29.88,16.92L312.48,551.52c0.539,0.9,0.899,1.98,0.899,3.061
		V761.4c0,5.22,4.32,9.539,9.54,9.539h32.4c4.5,0,8.46-3.239,9.359-7.56l41.4-194.22c0.54-2.34,2.7-3.96,5.4-4.141L727.92,565.2
		l44.82,44.819c1.26,1.261,1.8,2.881,1.439,4.681L747.72,759.6c-0.54,2.881,0.181,5.761,1.98,7.92c1.8,2.16,4.5,3.42,7.38,3.42
		h30.78c4.14,0,7.739-2.699,9.18-6.479l54-162.36c0.72-2.16,0.72-4.5-0.18-6.66l-20.7-50.039c-5.04-12.601-5.94-26.28-2.7-39.42
		L849.6,417.42z M812.34,552.42l19.08,46.8l-50.76,152.46H768.6l24.48-133.56c1.439-7.92-0.9-15.84-6.66-21.78l-47.7-47.7l0,0
		L692.82,502.74c-16.2-16.2-25.021-37.62-25.021-60.48v-27.54c0-5.22-4.319-9.54-9.54-9.54c-5.22,0-9.54,4.32-9.54,9.54v27.54
		c0,27.9,10.98,54.36,30.78,74.16l29.52,29.52l-297.18-0.18c-11.52-0.359-21.96,7.92-24.3,19.26L347.4,751.68h-14.94v-196.74
		c0-5.039-1.44-9.899-4.5-14.22l-93.78-132.3c-9.9-16.02-26.64-25.56-45.9-25.56H88.56c-7.74,0.18-14.94-3.6-18.9-10.08
		c-4.14-7.02-3.78-15.66,0.9-22.32l95.22-136.26c4.86-7.2,5.58-16.56,1.62-24.3c-1.62-3.24-5.04-5.4-8.64-5.4h-64.8
		c-10.44,0-19.08-8.46-19.08-19.08v-5.94c9.54,5.94,20.52,9.18,31.86,9.18h71.46c5.76,0,11.16,2.34,15.3,6.3
		c4.14,4.14,6.3,9.54,6.3,15.3l-0.18,20.34c0,2.52,1.08,5.04,2.88,6.84c4.5,4.5,10.8,7.2,17.28,7.2h519.84
		c25.02,0,48.6,9.72,66.24,27.36c17.64,17.64,27.359,41.22,27.359,66.24V333v27.36l-1.439,32.4h-31.32
		c-35.28,0-64.08-28.8-64.08-64.08c0-28.98-23.58-52.74-52.74-52.74H651.6c-5.22,0-9.54,4.32-9.54,9.54s4.32,9.54,9.54,9.54h31.86
		c18.54,0,33.48,14.94,33.48,33.48c0,45.9,37.26,83.16,83.159,83.16H830.7v1.26l-21.96,87.66
		C804.6,518.4,805.86,536.04,812.34,552.42z"/>
	<path fill="#0061AD" d="M173.88,261.54c-8.28,0-14.94,6.66-14.94,14.94s6.66,14.94,14.94,14.94c8.28,0,14.94-6.66,14.94-14.94
		S182.16,261.54,173.88,261.54z"/>
</g>
<g>
	<path fill="#FFFFFF" d="M849.6,1168.42c0.181-0.54,0.181-1.26,0.36-1.979l2.34-54.181v-42.66c0-30.06-11.7-58.5-32.939-79.74
		c-21.24-21.239-49.681-33.119-79.74-33.119H219.6c-0.36,0-0.54,0-0.72,0l0.18-14.76c0-10.98-4.14-21.24-11.88-28.98
		c-7.74-7.74-18-12.061-28.98-12.061h-71.28c-10.8,0-20.88-4.14-28.62-11.879l-6.12-6.121c-2.7-2.699-6.84-3.6-10.44-2.16
		c-3.6,1.44-5.94,5.041-5.94,8.82v27c0,21.061,17.1,38.16,38.16,38.16h55.8L54.9,1090.48c-9,12.779-9.54,29.52-1.62,43.199
		c7.56,12.42,21.24,19.801,35.64,19.261h99.54l0,0c12.06,0,23.04,6.119,29.88,16.92l94.141,132.659
		c0.539,0.9,0.899,1.98,0.899,3.061v206.82c0,5.22,4.32,9.539,9.54,9.539h32.4c4.5,0,8.46-3.239,9.359-7.56l41.4-194.22
		c0.54-2.34,2.7-3.96,5.4-4.141l316.439,0.181l44.82,44.819c1.26,1.261,1.8,2.881,1.439,4.681L747.72,1510.6
		c-0.54,2.881,0.181,5.761,1.98,7.92c1.8,2.16,4.5,3.42,7.38,3.42h30.78c4.14,0,7.739-2.699,9.18-6.479l54-162.36
		c0.72-2.16,0.72-4.5-0.18-6.66l-20.7-50.039c-5.04-12.601-5.94-26.28-2.7-39.42L849.6,1168.42z M812.34,1303.42l19.08,46.8
		l-50.76,152.46H768.6l24.48-133.56c1.439-7.92-0.9-15.84-6.66-21.78l-47.7-47.7l0,0l-45.899-45.899
		c-16.2-16.2-25.021-37.62-25.021-60.48v-27.54c0-5.22-4.319-9.54-9.54-9.54c-5.22,0-9.54,4.32-9.54,9.54v27.54
		c0,27.9,10.98,54.36,30.78,74.16l29.52,29.52l-297.18-0.18c-11.52-0.359-21.96,7.92-24.3,19.26l-40.14,186.66h-14.94v-196.74
		c0-5.039-1.44-9.899-4.5-14.22l-93.78-132.3c-9.9-16.02-26.64-25.561-45.9-25.561H88.56c-7.74,0.181-14.94-3.6-18.9-10.08
		c-4.14-7.02-3.78-15.659,0.9-22.319l95.22-136.26c4.86-7.2,5.58-16.56,1.62-24.3c-1.62-3.24-5.04-5.4-8.64-5.4h-64.8
		c-10.44,0-19.08-8.46-19.08-19.08v-5.939c9.54,5.939,20.52,9.18,31.86,9.18h71.46c5.76,0,11.16,2.34,15.3,6.3
		c4.14,4.14,6.3,9.54,6.3,15.3l-0.18,20.34c0,2.521,1.08,5.041,2.88,6.84c4.5,4.5,10.8,7.201,17.28,7.201h519.84
		c25.02,0,48.6,9.719,66.24,27.359c17.64,17.641,27.359,41.22,27.359,66.24V1084v27.359l-1.439,32.4h-31.32
		c-35.28,0-64.08-28.8-64.08-64.08c0-28.979-23.58-52.74-52.74-52.74H651.6c-5.22,0-9.54,4.32-9.54,9.541
		c0,5.22,4.32,9.539,9.54,9.539h31.86c18.54,0,33.48,14.94,33.48,33.48c0,45.9,37.26,83.16,83.159,83.16H830.7v1.26l-21.96,87.66
		C804.6,1269.4,805.86,1287.04,812.34,1303.42z"/>
	<path fill="#FFFFFF" d="M173.88,1012.54c-8.28,0-14.94,6.66-14.94,14.94c0,8.279,6.66,14.939,14.94,14.939
		c8.28,0,14.94-6.66,14.94-14.939C188.82,1019.2,182.16,1012.54,173.88,1012.54z"/>
</g>
</svg>
