<?xml version="1.0" encoding="utf-8"?>
<!-- Generator: Adobe Illustrator 16.0.0, SVG Export Plug-In . SVG Version: 6.00 Build 0)  -->
<!DOCTYPE svg PUBLIC "-//W3C//DTD SVG 1.1//EN" "http://www.w3.org/Graphics/SVG/1.1/DTD/svg11.dtd">
<svg version="1.1" id="Layer_1" xmlns="http://www.w3.org/2000/svg" xmlns:xlink="http://www.w3.org/1999/xlink" x="0px" y="0px"
	 width="900px" height="1618.5px" viewBox="0 0 900 1618.5" enable-background="new 0 0 900 1618.5" xml:space="preserve">
<g>
	<path fill="#0061AD" d="M877.86,448.02c-5.58-6.3-121.5-135.359-278.101-169.919c-47.16-93.24-203.58-101.34-210.42-101.7
		c-3.24-0.18-6.12,1.26-8.1,3.78c-1.98,2.52-2.34,5.94-1.44,8.82l33.84,98.64C327.96,315,257.4,367.74,214.92,405.36
		c-63.36-101.88-180.9-97.2-186.12-97.021c-3.42,0.18-6.3,2.16-7.92,5.04s-1.44,6.48,0.18,9.36l77.76,131.58L21.06,585.9
		c-1.62,2.88-1.8,6.479-0.18,9.359s4.68,4.86,7.92,5.04c0.54,0,2.16,0.181,4.86,0.181c23.4,0,124.2-5.58,181.26-97.2
		c42.66,37.62,113.58,90.54,199.44,117.899l-37.44,89.101c-1.26,2.88-0.9,6.3,0.72,9c1.8,2.7,4.681,4.319,7.92,4.319
		c0.54,0,1.801,0,3.78,0c25.561,0,167.76-3.96,215.28-91.08c0.54-1.079,0.899-2.159,1.08-3.42
		C759.24,592.74,872.46,466.74,877.86,460.62C881.1,457.02,881.1,451.62,877.86,448.02z M524.52,619.92
		c-163.979,0-303.12-134.46-333-165.6c29.88-31.141,169.02-165.601,333-165.601c59.94,0,116.46,18,165.601,42.3
		c-25.92,36-40.32,79.38-40.32,124.02c0,44.1,14.04,87.3,39.601,122.94C640.439,602.1,584.1,619.92,524.52,619.92z M402.84,196.74
		c36.18,3.96,130.86,19.62,171.72,76.5c-16.38-2.34-32.939-3.78-49.859-3.78c-32.04,0-63,4.86-92.34,12.6L402.84,196.74z
		 M46.44,580.68l71.82-121.319c1.8-3.061,1.8-6.841,0-9.721L46.44,328.32c33.66,2.7,109.98,17.46,153.72,90.54
		C182.88,435.06,172.62,446.4,171,448.2c-3.24,3.6-3.24,9.18,0,12.78c1.62,1.8,11.88,13.14,29.16,29.34
		C156.42,563.04,80.1,577.8,46.44,580.68z M400.32,704.16l32.58-77.4c29.159,7.74,59.76,12.42,91.619,12.42
		c19.08,0,37.98-1.8,56.16-4.859C538.2,692.82,437.76,702.54,400.32,704.16z M706.68,569.16c-24.66-33.3-37.62-72.36-37.62-114.12
		c0-41.58,13.681-81.9,38.341-115.02c76.5,41.58,132.479,95.94,150.119,114.3C839.7,472.86,783.72,527.58,706.68,569.16z"/>
	<path fill="#0061AD" d="M748.8,422.64c-10.979,0-19.8,8.82-19.8,19.801c0,10.979,8.82,19.8,19.8,19.8c10.98,0,19.8-8.82,19.8-19.8
		C768.78,431.46,759.78,422.64,748.8,422.64z"/>
</g>
<g>
	<path fill="#FFFFFF" d="M877.86,1139.02c-5.58-6.3-121.5-135.359-278.101-169.92C552.6,875.859,396.18,867.76,389.34,867.4
		c-3.24-0.181-6.12,1.26-8.1,3.779c-1.98,2.521-2.34,5.94-1.44,8.82l33.84,98.641c-85.68,27.359-156.24,80.1-198.72,117.72
		c-63.36-101.88-180.9-97.2-186.12-97.021c-3.42,0.18-6.3,2.16-7.92,5.04s-1.44,6.479,0.18,9.36l77.76,131.58L21.06,1276.9
		c-1.62,2.88-1.8,6.479-0.18,9.359s4.68,4.86,7.92,5.04c0.54,0,2.16,0.181,4.86,0.181c23.4,0,124.2-5.58,181.26-97.2
		c42.66,37.62,113.58,90.54,199.44,117.899l-37.44,89.101c-1.26,2.88-0.9,6.3,0.72,9c1.8,2.7,4.681,4.319,7.92,4.319
		c0.54,0,1.801,0,3.78,0c25.561,0,167.76-3.96,215.28-91.08c0.54-1.079,0.899-2.159,1.08-3.42
		c153.54-36.359,266.76-162.359,272.16-168.479C881.1,1148.02,881.1,1142.62,877.86,1139.02z M524.52,1310.92
		c-163.979,0-303.12-134.46-333-165.6c29.88-31.141,169.02-165.601,333-165.601c59.94,0,116.46,18,165.601,42.3
		c-25.92,36-40.32,79.381-40.32,124.021c0,44.1,14.04,87.3,39.601,122.94C640.439,1293.1,584.1,1310.92,524.52,1310.92z
		 M402.84,887.74c36.18,3.96,130.86,19.619,171.72,76.5c-16.38-2.34-32.939-3.78-49.859-3.78c-32.04,0-63,4.86-92.34,12.601
		L402.84,887.74z M46.44,1271.68l71.82-121.319c1.8-3.061,1.8-6.841,0-9.721L46.44,1019.32c33.66,2.699,109.98,17.46,153.72,90.54
		c-17.28,16.199-27.54,27.54-29.16,29.34c-3.24,3.6-3.24,9.18,0,12.78c1.62,1.8,11.88,13.14,29.16,29.34
		C156.42,1254.04,80.1,1268.8,46.44,1271.68z M400.32,1395.16l32.58-77.4c29.159,7.74,59.76,12.42,91.619,12.42
		c19.08,0,37.98-1.8,56.16-4.859C538.2,1383.82,437.76,1393.54,400.32,1395.16z M706.68,1260.16
		c-24.66-33.3-37.62-72.36-37.62-114.12c0-41.58,13.681-81.899,38.341-115.021c76.5,41.58,132.479,95.94,150.119,114.301
		C839.7,1163.86,783.72,1218.58,706.68,1260.16z"/>
	<path fill="#FFFFFF" d="M748.8,1113.64c-10.979,0-19.8,8.82-19.8,19.801c0,10.979,8.82,19.8,19.8,19.8c10.98,0,19.8-8.82,19.8-19.8
		C768.78,1122.46,759.78,1113.64,748.8,1113.64z"/>
</g>
</svg>
