<?xml version="1.0" encoding="utf-8"?>
<!-- Generator: Adobe Illustrator 16.0.0, SVG Export Plug-In . SVG Version: 6.00 Build 0)  -->
<!DOCTYPE svg PUBLIC "-//W3C//DTD SVG 1.1//EN" "http://www.w3.org/Graphics/SVG/1.1/DTD/svg11.dtd">
<svg version="1.1" id="Layer_1" xmlns="http://www.w3.org/2000/svg" xmlns:xlink="http://www.w3.org/1999/xlink" x="0px" y="0px"
	 width="900px" height="1930.5px" viewBox="0 0 900 1930.5" enable-background="new 0 0 900 1930.5" xml:space="preserve">
<g>
	<path fill="#0061AD" d="M685.08,403.56c-6.66-1.8-13.5,2.16-15.3,8.641c-19.08,70.02-64.62,143.64-127.98,207
		c-66.42,66.42-162.72,90.359-232.02,98.64c-6.84,0.9-11.7,7.021-10.8,13.86c0.72,6.3,6.12,10.979,12.42,10.979
		c0.54,0,1.08,0,1.439,0c104.76-12.779,190.08-49.319,246.6-105.84c66.421-66.42,114.301-144,134.461-218.16
		C695.52,412.2,691.74,405.36,685.08,403.56z"/>
	<path fill="#0061AD" d="M169.02,604.26c0.54,0,0.9,0,1.44,0c6.3,0,11.52-4.68,12.42-10.979c8.28-69.84,32.22-167.04,99-234
		c63.36-63.36,136.98-108.9,207-127.98c6.66-1.8,10.62-8.64,8.64-15.3c-1.8-6.66-8.64-10.44-15.3-8.64
		c-74.16,20.34-151.56,68.04-218.16,134.46c-56.88,56.88-93.6,142.92-106.02,248.581C157.32,597.24,162.18,603.54,169.02,604.26z"/>
	<path fill="#0061AD" d="M682.02,201.6L153.18,730.439c-4.86,4.86-4.86,12.78,0,17.641c2.52,2.52,5.58,3.6,8.82,3.6
		s6.3-1.26,8.82-3.6l528.84-528.84c4.859-4.86,4.859-12.78,0-17.64C694.8,196.74,686.88,196.74,682.02,201.6z"/>
	<path fill="#0061AD" d="M839.88,153.72c0-24.66-9.54-47.88-27.18-65.34C795.24,70.92,772.02,61.2,747.36,61.2
		c-24.66,0-47.88,9.54-65.341,27.18c-2.88,2.88-5.579,5.94-7.92,9C545.4,63.18,360.18,139.32,210.96,288.54
		C112.32,387,77.4,528.48,65.34,629.82c-12.96,109.08-2.88,194.04-2.52,197.64c0.72,5.76,5.22,10.26,10.8,10.8
		c2.16,0.181,34.56,4.141,84.24,4.141c31.86,0,70.74-1.62,113.22-6.66C372.42,823.68,513.9,788.76,612.36,690.3
		C762.12,540.54,837.9,356.04,803.52,227.16c3.24-2.52,6.301-5.04,9-7.92C830.34,201.6,839.88,178.38,839.88,153.72z M795.24,201.6
		c-3.78,3.78-7.92,7.02-12.42,9.9c-4.86,3.06-7.021,8.82-5.4,14.4c37.08,118.62-37.98,302.4-182.34,446.94
		c-162,162-451.26,146.7-508.32,141.84C81.9,757.62,66.6,468.36,228.6,306.36c142.74-143.1,325.26-218.52,443.7-183.6l3.061,0.9
		c5.399,1.8,11.34-0.54,14.399-5.4c2.7-4.5,6.12-8.64,9.9-12.42c12.78-12.78,29.7-19.8,47.88-19.8c18,0,35.1,7.02,47.88,19.8
		C821.52,132.3,821.52,175.14,795.24,201.6z"/>
</g>
<g>
	<path fill="#FFFFFF" d="M685.08,1354.56c-6.66-1.8-13.5,2.16-15.3,8.641c-19.08,70.02-64.62,143.64-127.98,207
		c-66.42,66.42-162.72,90.359-232.02,98.64c-6.84,0.9-11.7,7.021-10.8,13.86c0.72,6.3,6.12,10.979,12.42,10.979
		c0.54,0,1.08,0,1.439,0c104.76-12.779,190.08-49.319,246.6-105.84c66.421-66.42,114.301-144,134.461-218.16
		C695.52,1363.2,691.74,1356.36,685.08,1354.56z"/>
	<path fill="#FFFFFF" d="M169.02,1555.26c0.54,0,0.9,0,1.44,0c6.3,0,11.52-4.68,12.42-10.979c8.28-69.84,32.22-167.04,99-234.001
		c63.36-63.359,136.98-108.899,207-127.979c6.66-1.8,10.62-8.64,8.64-15.3c-1.8-6.66-8.64-10.439-15.3-8.641
		c-74.16,20.341-151.56,68.041-218.16,134.461c-56.88,56.88-93.6,142.92-106.02,248.58
		C157.32,1548.24,162.18,1554.54,169.02,1555.26z"/>
	<path fill="#FFFFFF" d="M682.02,1152.6l-528.839,528.84c-4.86,4.86-4.86,12.78,0,17.641c2.52,2.52,5.58,3.6,8.82,3.6
		s6.3-1.26,8.82-3.6l528.84-528.84c4.859-4.86,4.859-12.78,0-17.641C694.8,1147.74,686.88,1147.74,682.02,1152.6z"/>
	<path fill="#FFFFFF" d="M839.88,1104.72c0-24.659-9.54-47.88-27.18-65.34c-17.46-17.46-40.681-27.18-65.34-27.18
		c-24.66,0-47.88,9.54-65.341,27.18c-2.88,2.88-5.579,5.94-7.92,9c-128.699-34.2-313.92,41.94-463.14,191.16
		C112.32,1338,77.4,1479.48,65.34,1580.82c-12.96,109.08-2.88,194.04-2.52,197.64c0.72,5.76,5.22,10.26,10.8,10.8
		c2.16,0.181,34.56,4.141,84.24,4.141c31.86,0,70.74-1.62,113.22-6.66c101.34-12.061,242.82-46.98,341.28-145.44
		c149.76-149.76,225.54-334.26,191.159-463.14c3.24-2.52,6.301-5.04,9-7.92C830.34,1152.6,839.88,1129.38,839.88,1104.72z
		 M795.24,1152.6c-3.78,3.78-7.92,7.021-12.42,9.9c-4.86,3.061-7.021,8.82-5.4,14.4c37.08,118.619-37.98,302.399-182.34,446.939
		c-162,162-451.26,146.7-508.32,141.84c-4.86-57.06-20.16-346.319,141.84-508.32c142.74-143.1,325.26-218.52,443.7-183.6l3.061,0.9
		c5.399,1.8,11.34-0.54,14.399-5.4c2.7-4.5,6.12-8.64,9.9-12.42c12.78-12.779,29.7-19.8,47.88-19.8c18,0,35.1,7.021,47.88,19.8
		C821.52,1083.3,821.52,1126.141,795.24,1152.6z"/>
</g>
</svg>
