<?xml version="1.0" encoding="utf-8"?>
<!-- Generator: Adobe Illustrator 16.0.0, SVG Export Plug-In . SVG Version: 6.00 Build 0)  -->
<!DOCTYPE svg PUBLIC "-//W3C//DTD SVG 1.1//EN" "http://www.w3.org/Graphics/SVG/1.1/DTD/svg11.dtd">
<svg version="1.1" id="Layer_1" xmlns="http://www.w3.org/2000/svg" xmlns:xlink="http://www.w3.org/1999/xlink" x="0px" y="0px"
	 width="900px" height="1846.5px" viewBox="0 0 900 1846.5" enable-background="new 0 0 900 1846.5" xml:space="preserve">
<path fill="#0061AD" d="M706.14,552.24c0-113.221-48.239-212.76-120.42-268.92c-0.18-0.18-0.18-0.18-0.18-0.36
	c-0.36-0.36-0.9-0.54-1.26-0.9c-36.36-27.72-78.48-44.64-123.841-46.8c1.08-10.979,5.041-29.7,19.44-45.18
	c16.38-17.64,42.3-26.64,76.86-26.64c5.58,0,10.08-4.5,10.08-10.08c0-5.58-4.5-10.08-10.08-10.08c-39.601,0-70.021,10.8-90.36,31.86
	c5.04-21.78,14.04-45.18,30.24-61.92C512.1,97.2,532.26,89.1,556.74,89.1c5.58,0,10.08-4.5,10.08-10.08s-4.5-10.08-10.08-10.08
	c-30.24,0-55.44,10.26-74.7,30.42c-9.181,9.72-16.38,20.88-21.96,32.58V44.28c0-5.58-4.5-10.08-10.08-10.08s-10.08,4.5-10.08,10.08
	v87.3c-5.58-11.7-12.78-22.68-21.96-32.22c-19.26-20.16-44.46-30.42-74.7-30.42c-5.58,0-10.08,4.5-10.08,10.08
	s4.5,10.08,10.08,10.08c24.48,0,44.82,8.1,60.12,24.12c16.2,16.92,25.2,40.32,30.24,62.1c-20.34-21.06-50.761-31.86-90.54-31.86
	c-5.58,0-10.08,4.5-10.08,10.08s4.5,10.08,10.08,10.08c34.38,0,60.3,8.82,76.68,26.46c14.4,15.48,18.54,34.38,19.62,45.36
	c-45.18,2.34-87.48,19.08-123.66,46.8c-0.359,0.36-0.899,0.54-1.26,0.9c-0.18,0.18-0.18,0.18-0.18,0.36
	c-49.141,38.16-87.12,96.48-106.38,165.6c-0.18,0.36-0.18,0.9-0.36,1.261c-8.82,32.04-13.68,66.42-13.68,102.06
	c0,34.74,4.68,68.04,12.96,99.36c0,1.62,0.54,3.06,1.26,4.68c19.26,68.76,57.24,126.72,106.2,164.7c0.18,0.18,0.18,0.359,0.18,0.359
	c0.36,0.36,0.9,0.54,1.44,0.9c39.06,29.88,84.959,47.16,134.1,47.16c49.14,0,95.04-17.28,134.1-47.16c0.54-0.36,1.08-0.54,1.44-0.9
	c0.18-0.18,0.18-0.359,0.18-0.359C658.08,764.82,706.14,665.28,706.14,552.24z M214.02,552.24c0-27.54,3.06-54.181,8.64-79.561
	l79.38,79.38l-79.38,79.38C217.08,606.24,214.02,579.6,214.02,552.24z M450,255.06c40.86,0,79.38,13.14,112.86,36.18L450,404.28
	L337.14,291.42C370.62,268.2,409.14,255.06,450,255.06z M450,432.72l119.34,119.34L450,671.58L330.66,552.24L450,432.72z
	 M685.98,552.24c0,27.54-3.061,54.18-8.641,79.38l-79.38-79.38l79.38-79.38C682.92,498.06,685.98,524.7,685.98,552.24z M671.58,450
	l-87.66,87.66L464.4,418.32L579.06,303.66C621.18,338.4,653.939,389.52,671.58,450z M320.94,303.66L435.42,418.14l-119.34,119.34
	L228.42,450C246.06,389.52,278.82,338.4,320.94,303.66z M228.42,654.3l87.66-87.66l119.34,119.34L320.76,800.64
	C278.82,765.9,246.06,714.78,228.42,654.3z M337.14,812.88L450,700.02l112.86,112.86c-33.48,23.04-72,36.36-112.86,36.36
	S370.62,836.1,337.14,812.88z M579.06,800.64L464.4,685.979l119.34-119.34l87.66,87.66C653.939,714.78,621.18,765.9,579.06,800.64z"
	/>
<path fill="#FFFFFF" d="M673.898,1471.993c0-113.221-48.239-212.761-120.42-268.921c-0.18-0.18-0.18-0.18-0.18-0.359
	c-0.36-0.359-0.9-0.54-1.26-0.9c-36.36-27.72-78.48-44.64-123.841-46.8c1.08-10.979,5.041-29.7,19.44-45.18
	c16.38-17.64,42.3-26.64,76.86-26.64c5.58,0,10.08-4.5,10.08-10.08s-4.5-10.08-10.08-10.08c-39.601,0-70.021,10.8-90.36,31.859
	c5.04-21.779,14.04-45.18,30.24-61.92c15.479-16.02,35.64-24.119,60.12-24.119c5.58,0,10.08-4.5,10.08-10.08s-4.5-10.08-10.08-10.08
	c-30.24,0-55.44,10.26-74.7,30.42c-9.181,9.72-16.38,20.88-21.96,32.58v-87.66c0-5.58-4.5-10.08-10.08-10.08s-10.08,4.5-10.08,10.08
	v87.3c-5.58-11.7-12.78-22.681-21.96-32.22c-19.26-20.16-44.46-30.42-74.7-30.42c-5.58,0-10.08,4.5-10.08,10.08
	s4.5,10.08,10.08,10.08c24.48,0,44.82,8.1,60.12,24.119c16.2,16.92,25.2,40.32,30.24,62.1c-20.34-21.06-50.761-31.859-90.54-31.859
	c-5.58,0-10.08,4.5-10.08,10.08s4.5,10.08,10.08,10.08c34.38,0,60.3,8.82,76.68,26.46c14.4,15.479,18.54,34.38,19.62,45.36
	c-45.18,2.34-87.48,19.08-123.66,46.8c-0.359,0.36-0.899,0.54-1.26,0.899c-0.18,0.18-0.18,0.18-0.18,0.36
	c-49.141,38.16-87.12,96.479-106.38,165.6c-0.18,0.36-0.18,0.9-0.36,1.261c-8.82,32.04-13.68,66.42-13.68,102.06
	c0,34.74,4.68,68.04,12.96,99.36c0,1.62,0.54,3.06,1.26,4.68c19.26,68.76,57.24,126.72,106.2,164.7c0.18,0.18,0.18,0.359,0.18,0.359
	c0.36,0.36,0.9,0.54,1.44,0.9c39.06,29.88,84.959,47.16,134.1,47.16c49.14,0,95.04-17.28,134.1-47.16c0.54-0.36,1.08-0.54,1.44-0.9
	c0.18-0.18,0.18-0.359,0.18-0.359C625.839,1684.573,673.898,1585.033,673.898,1471.993z M181.779,1471.993
	c0-27.54,3.06-54.181,8.64-79.561l79.38,79.38l-79.38,79.38C184.839,1525.993,181.779,1499.353,181.779,1471.993z M417.759,1174.813
	c40.86,0,79.38,13.141,112.86,36.181l-112.86,113.04l-112.86-112.86C338.379,1187.953,376.898,1174.813,417.759,1174.813z
	 M417.759,1352.473l119.34,119.34l-119.34,119.521l-119.34-119.34L417.759,1352.473z M653.739,1471.993
	c0,27.54-3.061,54.18-8.641,79.38l-79.38-79.38l79.38-79.38C650.679,1417.813,653.739,1444.453,653.739,1471.993z M639.339,1369.753
	l-87.66,87.66l-119.52-119.34l114.659-114.66C588.938,1258.152,621.698,1309.273,639.339,1369.753z M288.699,1223.413
	l114.479,114.479l-119.34,119.34l-87.66-87.479C213.819,1309.273,246.579,1258.152,288.699,1223.413z M196.179,1574.053l87.66-87.66
	l119.34,119.34l-114.66,114.66C246.579,1685.653,213.819,1634.533,196.179,1574.053z M304.898,1732.633l112.86-112.86l112.86,112.86
	c-33.48,23.04-72,36.36-112.86,36.36S338.379,1755.853,304.898,1732.633z M546.818,1720.393l-114.659-114.66l119.34-119.34
	l87.66,87.66C621.698,1634.533,588.938,1685.653,546.818,1720.393z"/>
</svg>
