<?xml version="1.0" encoding="utf-8"?>
<!-- Generator: Adobe Illustrator 23.0.1, SVG Export Plug-In . SVG Version: 6.00 Build 0)  -->
<svg version="1.1" id="Layer_1" xmlns="http://www.w3.org/2000/svg" xmlns:xlink="http://www.w3.org/1999/xlink" x="0px" y="0px"
	 viewBox="0 0 500 500" style="enable-background:new 0 0 500 500;" xml:space="preserve">
<style type="text/css">
	.st0{fill:#0061AD;}
</style>
<path class="st0" d="M378.3,173c4.8-29.8-13.6-54.9-24.9-67.1c-1.7-1.8-3.3-3.9-5-6.4c-1.1-1.6-2.4-3.4-3.9-5.2c1-1.1,1.5-2.7,1-4.3
	c-6.2-20.3-20.5-23.4-26.4-23.8c-1-1.1-1.7-1.8-1.9-1.9c-0.1-0.1-0.2-0.2-0.3-0.2c1.2-7.8-1.3-14.3-4.3-18.8
	c-2.7-4.1-8.8-4-11.5,0.1c-1.6,2.5-1.5,5.8,0.4,8c5.1,6.1,5.9,14.7,5.9,14.7C289.4,75,286.4,90.6,286.1,99c-0.1,2,1.2,3.7,2.9,4.4
	c-2.2,1.4-4.9,3.2-8.3,6c-49.2,14.6-47.9,69.6-46.6,84.8c-49.6,21.8-48.3,74.2-46.7,89.5c-5.4,1.9-15.2,6-24.6,13
	c-18.7,13.7-38.5,35.8-26.8,85.1c-0.7,3.5-3.8,17-13.4,25.8c-1.6,1.5-2,3.9-1,5.8s3.2,3,5.3,2.6c12.7-2.5,35.2-5.8,41.7-3.9l0.6,0.2
	c6.6,1.9,15.4,4.5,28,3.9c0,0.2,0,0.3-0.1,0.5c-0.6,5.9-1.2,11.5-2,13.6c-4.5,11.9-9.4,20.3-9.4,20.4c-1.1,1.9-0.8,4.4,0.8,5.9
	c0.9,0.9,2.2,1.4,3.5,1.4c0.9,0,1.7-0.2,2.5-0.7c0.2-0.1,25-14.5,62.2-17.8c41-3.7,66.1-44.5,65.4-70.9
	c-0.6-20.1,24.2-37.4,24.2-37.4c0.4-0.2,9.8-6,17.7-18.4c7.2-11.3,14.5-30.5,8.4-57.9c-7.1-31.5-4.3-39.5,0.4-52.6
	C373,195.3,376.1,186.7,378.3,173z M279.7,192c0.6,2.8,1.2,6,1.7,8.9c-2.6-1.7-5-3.7-7.2-5.9c-7.5-7.8-11.5-18.1-11.2-28.9
	c0.2-10.8,4.7-20.9,12.5-28.3c2.2-2.1,4.5-3.8,6.9-5.3c-1.1,2.7-2.1,5.4-3.1,7.9C272.8,157.5,276.8,177.5,279.7,192z M248.1,304.4
	c-18-5.5-30.5-22.1-30.5-41.4c0-23.9,19.5-43.4,43.4-43.4c3.7,0,7.4,0.5,11,1.4C252.6,250.7,248.5,283.7,248.1,304.4z M171.8,402.8
	l-0.6-0.2c-6.9-2-22.3-0.3-33.5,1.5c6.4-10.6,8-21.3,8-21.9c0.1-0.6,0.1-1.2-0.1-1.9c-10.8-44.1,5.5-63.1,22.9-75.8
	c12.1-8.9,25.4-12.7,25.5-12.7c2.4-0.7,4-3.1,3.5-5.6c0-0.2-2.9-15.9,1.2-34.3c5.3-24.3,19.6-41.1,42.4-50.1
	c2.1-0.8,3.4-3.1,3.1-5.3c0-0.2-2.5-16.6,1.4-34.4c5.1-23.1,18.1-37.7,38.7-43.5c0.6-0.2,1.2-0.5,1.8-0.9c1.5-1.2,2.9-2.3,4.1-3.1
	c-0.7,1.2-1.5,2.8-2.3,4.6c-7,2.2-13.5,6-19.3,11.5c-9.7,9.3-15.2,21.8-15.5,35.2c-0.3,13.4,4.7,26.2,13.9,35.9
	c3.6,3.7,7.7,6.8,12.2,9.3c-0.4,0.5-0.8,1-1.2,1.5c-5.5-1.8-11.1-2.8-17-2.8c-29.3,0-53.2,23.9-53.2,53.2
	c0,24.7,16.8,45.9,40.5,51.6c0.1,2.7,0.3,4.9,0.4,6.6c-2.7,1.4-5.3,3-7.7,4.7c-1.7-2.8-3.6-5.5-5.9-8c-9-9.7-21.3-15.4-34.5-15.9
	c-13.2-0.6-25.9,4.2-35.7,13.2c-9.7,9-15.4,21.3-15.9,34.5c-0.5,13.3,4.2,25.9,13.2,35.7c9.4,10.2,22.8,15.9,36.5,15.9
	c0.1,0,0.3,0,0.4,0c-0.4,2.3-0.7,4-0.8,4.8c0,0.1-0.1,0.1-0.1,0.2C186.4,407.1,178.4,404.7,171.8,402.8z M201.3,391.3
	c-12,0.8-23.8-3.8-32-12.6c-7.2-7.8-11-18-10.6-28.6c0.4-10.6,5-20.5,12.8-27.7c7.8-7.2,18-10.9,28.6-10.6
	c10.6,0.4,20.5,5,27.7,12.8c2.1,2.3,3.9,4.9,5.4,7.6C214.4,349.5,205.4,375.1,201.3,391.3z M368.6,171.5
	c-2.1,12.8-4.8,20.6-7.3,27.5c-4.9,13.8-8.4,23.7-0.7,58c10.2,45.6-20.3,64.9-21.8,65.9c-1.2,0.8-29.5,20.4-28.7,46
	c0.6,22.2-21.5,57.7-56.4,60.9c-23.1,2.1-41.6,8.1-53.1,12.9c1.2-2.7,2.4-5.7,3.6-8.9c1.2-3.3,1.8-8.6,2.6-16
	c0.3-2.9,0.6-6.1,1.1-9.6c0-0.1,0.1-0.2,0.1-0.3c0.1-0.6,8.1-61.2,48-79.3c0.1,0,0.1-0.1,0.2-0.2c0.3-0.2,0.6-0.4,0.8-0.6
	c0.2-0.2,0.5-0.4,0.7-0.6c0.2-0.2,0.3-0.5,0.5-0.8c0.2-0.3,0.3-0.6,0.4-0.9c0.1-0.3,0.1-0.6,0.1-0.9c0-0.3,0.1-0.7,0.1-1
	c0-0.1,0-0.2,0-0.3c-0.1-0.6-8.2-63.9,30.5-109.2c3.9-4.6,2.4-12.4,0-24.1c-2.7-13.4-6.4-31.7-0.9-46.2c3.1-8.1,5.3-13.7,7-17.5
	c0.8-0.8,1.3-1.9,1.4-3.1c1.5-3.2,2.2-4.5,2.5-4.9c0.7-1.1,1.4-2.3,2.2-3.9c2.4-5.1,4.5-9.8,6.4-14.1c3.5-0.7,6.3-1.7,8-3.5
	c1.7-1.8,4.4-2,6.4-0.5c4.6,3.5,8.7,2.6,12.4,1.3c2.2,2.7,4.2,5.2,5.6,7.2c2,2.9,3.9,5.4,5.9,7.6
	C356.3,123.5,372.7,145.8,368.6,171.5z"/>
</svg>
