<?xml version="1.0" encoding="utf-8"?>
<!-- Generator: Adobe Illustrator 23.0.1, SVG Export Plug-In . SVG Version: 6.00 Build 0)  -->
<svg version="1.1" id="Layer_1" xmlns="http://www.w3.org/2000/svg" xmlns:xlink="http://www.w3.org/1999/xlink" x="0px" y="0px"
	 viewBox="0 0 500 500" style="enable-background:new 0 0 500 500;" xml:space="preserve">
<style type="text/css">
	.st0{fill:#0061AD;}
</style>
<g>
	<path class="st0" d="M487.7,248.9c-3.1-3.5-67.5-75.2-154.5-94.4C307,102.7,220.1,98.2,216.3,98c-1.8-0.1-3.4,0.7-4.5,2.1
		c-1.1,1.4-1.3,3.3-0.8,4.9l18.8,54.8c-47.6,15.2-86.8,44.5-110.4,65.4c-35.2-56.6-100.5-54-103.4-53.9c-1.9,0.1-3.5,1.2-4.4,2.8
		c-0.9,1.6-0.8,3.6,0.1,5.2l43.2,73.1l-43.2,73.1c-0.9,1.6-1,3.6-0.1,5.2c0.9,1.6,2.6,2.7,4.4,2.8c0.3,0,1.2,0.1,2.7,0.1
		c13,0,69-3.1,100.7-54c23.7,20.9,63.1,50.3,110.8,65.5l-20.8,49.5c-0.7,1.6-0.5,3.5,0.4,5c1,1.5,2.6,2.4,4.4,2.4c0.3,0,1,0,2.1,0
		c14.2,0,93.2-2.2,119.6-50.6c0.3-0.6,0.5-1.2,0.6-1.9c85.3-20.2,148.2-90.2,151.2-93.6C489.5,253.9,489.5,250.9,487.7,248.9z
		 M291.4,344.4c-91.1,0-168.4-74.7-185-92c16.6-17.3,93.9-92,185-92c33.3,0,64.7,10,92,23.5C369,203.9,361,228,361,252.8
		c0,24.5,7.8,48.5,22,68.3C355.8,334.5,324.5,344.4,291.4,344.4z M223.8,109.3c20.1,2.2,72.7,10.9,95.4,42.5
		c-9.1-1.3-18.3-2.1-27.7-2.1c-17.8,0-35,2.7-51.3,7L223.8,109.3z M25.8,322.6l39.9-67.4c1-1.7,1-3.8,0-5.4l-39.9-67.4
		c18.7,1.5,61.1,9.7,85.4,50.3c-9.6,9-15.3,15.3-16.2,16.3c-1.8,2-1.8,5.1,0,7.1c0.9,1,6.6,7.3,16.2,16.3
		C86.9,312.8,44.5,321,25.8,322.6z M222.4,391.2l18.1-43c16.2,4.3,33.2,6.9,50.9,6.9c10.6,0,21.1-1,31.2-2.7
		C299,384.9,243.2,390.3,222.4,391.2z M392.6,316.2c-13.7-18.5-20.9-40.2-20.9-63.4c0-23.1,7.6-45.5,21.3-63.9
		c42.5,23.1,73.6,53.3,83.4,63.5C466.5,262.7,435.4,293.1,392.6,316.2z"/>
	<path class="st0" d="M416,234.8c-6.1,0-11,4.9-11,11c0,6.1,4.9,11,11,11c6.1,0,11-4.9,11-11C427.1,239.7,422.1,234.8,416,234.8z"/>
</g>
</svg>
