<?xml version="1.0" encoding="utf-8"?>
<!-- Generator: Adobe Illustrator 23.0.1, SVG Export Plug-In . SVG Version: 6.00 Build 0)  -->
<svg version="1.1" id="Layer_1" xmlns="http://www.w3.org/2000/svg" xmlns:xlink="http://www.w3.org/1999/xlink" x="0px" y="0px"
	 viewBox="0 0 500 500" style="enable-background:new 0 0 500 500;" xml:space="preserve">
<style type="text/css">
	.st0{fill:#0061AD;}
</style>
<g>
	<path class="st0" d="M71.4,416.1h1.9c32,0,58.1-26,58.1-58.1c0-15.2-12.2-35.7-25-57.3c-13.9-23.4-28.3-47.6-28.3-65.9
		c0-2.6-2.1-4.8-4.8-4.8h-1.9c-2.6,0-4.8,2.1-4.8,4.8c0,18.3-14.4,42.5-28.3,65.9c-12.9,21.7-25,42.1-25,57.3
		C13.3,390.1,39.4,416.1,71.4,416.1z M46.6,305.7c10.1-16.9,20.3-34.3,25.8-50.3c5.4,16,15.7,33.3,25.8,50.3
		c12.2,20.5,23.7,39.9,23.7,52.4c0,26.7-21.8,48.5-48.5,48.5h-1.9c-26.7,0-48.5-21.7-48.5-48.5C22.9,345.5,34.4,326.2,46.6,305.7z"
		/>
	<path class="st0" d="M485.2,159c-1.8-1.8-45.7-44.1-100.7-39.2c-27.4,2.4-52.5,16.2-74.7,41c11.8-39.8,31.4-68.1,58.4-84.3
		c41.5-24.9,86.9-12,87.4-11.8c2.5,0.7,5.2-0.7,5.9-3.2c0.7-2.5-0.7-5.2-3.2-5.9c-2-0.6-49.7-14.2-94.9,12.7
		c-29.9,17.9-51.3,49.1-63.7,92.9c-12.4-43.9-33.8-75.1-63.7-92.9c-45.2-27-92.9-13.3-94.9-12.7c-2.5,0.8-4,3.4-3.2,5.9
		c0.7,2.5,3.4,4,5.9,3.2c0.5-0.1,45.8-13,87.4,11.8c27,16.2,46.6,44.6,58.4,84.5c-22.3-24.9-47.4-38.7-74.9-41.2
		c-55-4.9-98.9,37.4-100.7,39.2c-1.9,1.8-1.9,4.9-0.1,6.8c1.8,1.9,4.9,1.9,6.8,0.1c0.4-0.4,42.5-41,93.2-36.5
		c25.1,2.2,48.2,15.1,69,38.4c-23.1-8.8-45.3-9.2-66.1-1.1c-59.5,23.2-86.7,106.7-87.9,110.3c-0.8,2.5,0.6,5.2,3.1,6
		c2.5,0.8,5.2-0.6,6-3.1c0.3-0.8,27-82.8,82.2-104.3c11-4.3,22.5-5.8,34.3-4.8c-6.6,4.9-10.9,12.7-10.9,21.6
		c0,14.8,12.1,26.9,26.9,26.9c1.1,0,2.2-0.1,3.3-0.2c-0.6,2.2-1,4.6-1,7c0,13.1,9.5,24.1,22,26.4l0.6,186.5H18.1
		c-2.6,0-4.8,2.1-4.8,4.8s2.1,4.8,4.8,4.8h282h0h165.8c2.6,0,4.8-2.1,4.8-4.8s-2.1-4.8-4.8-4.8h-161l-0.6-186.4
		c12.6-2.2,22.2-13.2,22.2-26.4c0-2.4-0.4-4.8-1-7c1.1,0.1,2.2,0.2,3.3,0.2c14.8,0,26.9-12.1,26.9-26.9c0-8.8-4.3-16.7-10.9-21.6
		c11.9-1.1,23.3,0.5,34.3,4.8c55.2,21.5,82,103.5,82.2,104.3c0.7,2,2.5,3.3,4.6,3.3c0.5,0,1-0.1,1.5-0.2c2.5-0.8,3.9-3.5,3.1-6
		c-1.1-3.5-28.4-87.1-87.9-110.3c-20.9-8.1-43.1-7.7-66.3,1.2c20.7-23.3,43.9-36.2,68.9-38.4c50.6-4.5,92.8,36.1,93.3,36.5
		c1.9,1.8,4.9,1.8,6.8-0.1C487.1,163.9,487.1,160.9,485.2,159z M253.1,192.4c0-9.5,7.8-17.3,17.3-17.3c9.5,0,17.3,7.8,17.3,17.3
		c0,9.5-7.8,17.3-17.3,17.3C260.9,209.7,253.1,201.9,253.1,192.4z M299.6,243.4c-9.5,0-17.3-7.8-17.3-17.3s7.8-17.3,17.3-17.3
		c9.5,0,17.3,7.8,17.3,17.3S309.2,243.4,299.6,243.4z M328.8,209.7c-9.5,0-17.3-7.8-17.3-17.3c0-9.5,7.8-17.3,17.3-17.3
		c9.5,0,17.3,7.8,17.3,17.3C346.1,201.9,338.4,209.7,328.8,209.7z"/>
</g>
</svg>
