<?xml version="1.0" encoding="utf-8"?>
<!-- Generator: Adobe Illustrator 23.0.1, SVG Export Plug-In . SVG Version: 6.00 Build 0)  -->
<svg version="1.1" id="Layer_1" xmlns="http://www.w3.org/2000/svg" xmlns:xlink="http://www.w3.org/1999/xlink" x="0px" y="0px"
	 viewBox="0 0 500 500" style="enable-background:new 0 0 500 500;" xml:space="preserve">
<style type="text/css">
	.st0{fill:#0061AD;}
</style>
<path class="st0" d="M392.3,306.8c0-62.9-26.8-118.2-66.9-149.4c-0.1-0.1-0.1-0.1-0.1-0.2c-0.2-0.2-0.5-0.3-0.7-0.5
	c-20.2-15.4-43.6-24.8-68.8-26c0.6-6.1,2.8-16.5,10.8-25.1c9.1-9.8,23.5-14.8,42.7-14.8c3.1,0,5.6-2.5,5.6-5.6s-2.5-5.6-5.6-5.6
	c-22,0-38.9,6-50.2,17.7c2.8-12.1,7.8-25.1,16.8-34.4c8.6-8.9,19.8-13.4,33.4-13.4c3.1,0,5.6-2.5,5.6-5.6s-2.5-5.6-5.6-5.6
	c-16.8,0-30.8,5.7-41.5,16.9c-5.1,5.4-9.1,11.6-12.2,18.1l0-48.7c0-3.1-2.5-5.6-5.6-5.6s-5.6,2.5-5.6,5.6l0,48.5
	c-3.1-6.5-7.1-12.6-12.2-17.9c-10.7-11.2-24.7-16.9-41.5-16.9c-3.1,0-5.6,2.5-5.6,5.6s2.5,5.6,5.6,5.6c13.6,0,24.9,4.5,33.4,13.4
	c9,9.4,14,22.4,16.8,34.5c-11.3-11.7-28.2-17.7-50.3-17.7c-3.1,0-5.6,2.5-5.6,5.6s2.5,5.6,5.6,5.6c19.1,0,33.5,4.9,42.6,14.7
	c8,8.6,10.3,19.1,10.9,25.2c-25.1,1.3-48.6,10.6-68.7,26c-0.2,0.2-0.5,0.3-0.7,0.5c-0.1,0.1-0.1,0.1-0.1,0.2
	c-27.3,21.2-48.4,53.6-59.1,92c-0.1,0.2-0.1,0.5-0.2,0.7c-4.9,17.8-7.6,36.9-7.6,56.7c0,19.3,2.6,37.8,7.2,55.2
	c0,0.9,0.3,1.7,0.7,2.6c10.7,38.2,31.8,70.4,59,91.5c0.1,0.1,0.1,0.2,0.1,0.2c0.2,0.2,0.5,0.3,0.8,0.5
	c21.7,16.6,47.2,26.2,74.5,26.2s52.8-9.6,74.5-26.2c0.3-0.2,0.6-0.3,0.8-0.5c0.1-0.1,0.1-0.2,0.1-0.2
	C365.6,424.9,392.3,369.6,392.3,306.8z M118.9,306.8c0-15.3,1.7-30.1,4.8-44.2l44.1,44.1l-44.1,44.1
	C120.6,336.8,118.9,322,118.9,306.8z M250,141.7c22.7,0,44.1,7.3,62.7,20.1L250,224.6l-62.7-62.7C205.9,149,227.3,141.7,250,141.7z
	 M250,240.4l66.3,66.3L250,373.1l-66.3-66.3L250,240.4z M381.1,306.8c0,15.3-1.7,30.1-4.8,44.1l-44.1-44.1l44.1-44.1
	C379.4,276.7,381.1,291.5,381.1,306.8z M373.1,250l-48.7,48.7L258,232.4l63.7-63.7C345.1,188,363.3,216.4,373.1,250z M178.3,168.7
	l63.6,63.6l-66.3,66.3L126.9,250C136.7,216.4,154.9,188,178.3,168.7z M126.9,363.5l48.7-48.7l66.3,66.3l-63.7,63.7
	C154.9,425.5,136.7,397.1,126.9,363.5z M187.3,451.6l62.7-62.7l62.7,62.7c-18.6,12.8-40,20.2-62.7,20.2S205.9,464.5,187.3,451.6z
	 M321.7,444.8l-63.7-63.7l66.3-66.3l48.7,48.7C363.3,397.1,345.1,425.5,321.7,444.8z"/>
</svg>
