<?xml version="1.0" encoding="utf-8"?>
<!-- Generator: Adobe Illustrator 23.0.1, SVG Export Plug-In . SVG Version: 6.00 Build 0)  -->
<svg version="1.1" id="Layer_1" xmlns="http://www.w3.org/2000/svg" xmlns:xlink="http://www.w3.org/1999/xlink" x="0px" y="0px"
	 viewBox="0 0 500 500" style="enable-background:new 0 0 500 500;" xml:space="preserve">
<style type="text/css">
	.st0{fill:#0061AD;}
</style>
<g>
	<path class="st0" d="M472,231.9c0.1-0.3,0.1-0.7,0.2-1.1l1.3-30.1l0-23.7c0-16.7-6.5-32.5-18.3-44.3
		c-11.8-11.8-27.6-18.4-44.3-18.4H122c-0.2,0-0.3,0-0.4,0l0.1-8.2c0-6.1-2.3-11.8-6.6-16.1c-4.3-4.3-10-6.7-16.1-6.7H59.4
		c-6,0-11.6-2.3-15.9-6.6l-3.4-3.4c-1.5-1.5-3.8-2-5.8-1.2c-2,0.8-3.3,2.8-3.3,4.9v15c0,11.7,9.5,21.2,21.2,21.2h31l-52.7,75.4
		c-5,7.1-5.3,16.4-0.9,24c4.2,6.9,11.8,11,19.8,10.7h55.3c0,0,0,0,0,0c6.7,0,12.8,3.4,16.6,9.4l52.3,73.7c0.3,0.5,0.5,1.1,0.5,1.7
		V423c0,2.9,2.4,5.3,5.3,5.3h18c2.5,0,4.7-1.8,5.2-4.2l23-107.9c0.3-1.3,1.5-2.2,3-2.3l175.8,0.1l24.9,24.9c0.7,0.7,1,1.6,0.8,2.6
		L415.4,422c-0.3,1.6,0.1,3.2,1.1,4.4c1,1.2,2.5,1.9,4.1,1.9h17.1c2.3,0,4.3-1.5,5.1-3.6l30-90.2c0.4-1.2,0.4-2.5-0.1-3.7L461.2,303
		c-2.8-7-3.3-14.6-1.5-21.9L472,231.9z M451.3,306.9l10.6,26l-28.2,84.7H427l13.6-74.2c0.8-4.4-0.5-8.8-3.7-12.1l-26.5-26.5
		c0,0,0,0,0,0l-25.5-25.5c-9-9-13.9-20.9-13.9-33.6v-15.3c0-2.9-2.4-5.3-5.3-5.3c-2.9,0-5.3,2.4-5.3,5.3v15.3
		c0,15.5,6.1,30.2,17.1,41.2l16.4,16.4l-165.1-0.1c-6.4-0.2-12.2,4.4-13.5,10.7L193,417.6h-8.3V308.3c0-2.8-0.8-5.5-2.5-7.9
		l-52.1-73.5c-5.5-8.9-14.8-14.2-25.5-14.2l-55.4,0c-4.3,0.1-8.3-2-10.5-5.6c-2.3-3.9-2.1-8.7,0.5-12.4l52.9-75.7
		c2.7-4,3.1-9.2,0.9-13.5c-0.9-1.8-2.8-3-4.8-3H52.2c-5.8,0-10.6-4.7-10.6-10.6v-3.3c5.3,3.3,11.4,5.1,17.7,5.1H99
		c3.2,0,6.2,1.3,8.5,3.5c2.3,2.3,3.5,5.3,3.5,8.5l-0.1,11.3c0,1.4,0.6,2.8,1.6,3.8c2.5,2.5,6,4,9.6,4h288.8c13.9,0,27,5.4,36.8,15.2
		c9.8,9.8,15.2,22.9,15.2,36.8l0,8.2l0,15.2l-0.8,18h-17.4c-19.6,0-35.6-16-35.6-35.6c0-16.1-13.1-29.3-29.3-29.3H362
		c-2.9,0-5.3,2.4-5.3,5.3c0,2.9,2.4,5.3,5.3,5.3h17.7c10.3,0,18.6,8.3,18.6,18.6c0,25.5,20.7,46.2,46.2,46.2h17l0,0.7l-12.2,48.7
		C447,288,447.7,297.8,451.3,306.9z"/>
	<path class="st0" d="M96.6,145.3c-4.6,0-8.3,3.7-8.3,8.3s3.7,8.3,8.3,8.3c4.6,0,8.3-3.7,8.3-8.3S101.2,145.3,96.6,145.3z"/>
</g>
</svg>
