<?xml version="1.0" encoding="utf-8"?>
<!-- Generator: Adobe Illustrator 23.0.1, SVG Export Plug-In . SVG Version: 6.00 Build 0)  -->
<svg version="1.1" id="Layer_1" xmlns="http://www.w3.org/2000/svg" xmlns:xlink="http://www.w3.org/1999/xlink" x="0px" y="0px"
	 viewBox="0 0 500 500" style="enable-background:new 0 0 500 500;" xml:space="preserve">
<style type="text/css">
	.st0{fill:#0061AD;}
</style>
<g>
	<path class="st0" d="M380.6,224.2c-3.7-1-7.5,1.2-8.5,4.8c-10.6,38.9-35.9,79.8-71.1,115c-36.9,36.9-90.4,50.2-128.9,54.8
		c-3.8,0.5-6.5,3.9-6,7.7c0.4,3.5,3.4,6.1,6.9,6.1c0.3,0,0.6,0,0.8,0c58.2-7.1,105.6-27.4,137-58.8c36.9-36.9,63.5-80,74.7-121.2
		C386.4,229,384.3,225.2,380.6,224.2z"/>
	<path class="st0" d="M93.9,335.7c0.3,0,0.5,0,0.8,0c3.5,0,6.4-2.6,6.9-6.1c4.6-38.8,17.9-92.8,55-130c35.2-35.2,76.1-60.5,115-71.1
		c3.7-1,5.9-4.8,4.8-8.5c-1-3.7-4.8-5.8-8.5-4.8c-41.2,11.3-84.2,37.8-121.2,74.7c-31.6,31.6-52,79.4-58.9,138.1
		C87.4,331.8,90.1,335.3,93.9,335.7z"/>
	<path class="st0" d="M378.9,112L85.1,405.8c-2.7,2.7-2.7,7.1,0,9.8c1.4,1.4,3.1,2,4.9,2c1.8,0,3.5-0.7,4.9-2l293.8-293.8
		c2.7-2.7,2.7-7.1,0-9.8C386,109.3,381.6,109.3,378.9,112z"/>
	<path class="st0" d="M466.6,85.4c0-13.7-5.3-26.6-15.1-36.3c-9.7-9.7-22.6-15.1-36.3-15.1c-13.7,0-26.6,5.3-36.3,15.1
		c-1.6,1.6-3.1,3.3-4.4,5c-71.5-19-174.4,23.3-257.3,106.2C62.4,215,43,293.6,36.3,349.9c-7.2,60.6-1.6,107.8-1.4,109.8
		c0.4,3.2,2.9,5.7,6,6c1.2,0.1,19.2,2.3,46.8,2.3c17.7,0,39.3-0.9,62.9-3.7c56.3-6.7,134.9-26.1,189.6-80.8
		c83.2-83.2,125.3-185.7,106.2-257.3c1.8-1.4,3.5-2.8,5-4.4C461.3,112,466.6,99.1,466.6,85.4z M441.8,112c-2.1,2.1-4.4,3.9-6.9,5.5
		c-2.7,1.7-3.9,4.9-3,8c20.6,65.9-21.1,168-101.3,248.3c-90,90-250.7,81.5-282.4,78.8c-2.7-31.7-11.2-192.4,78.8-282.4
		C206.3,90.7,307.7,48.8,373.5,68.2l1.7,0.5c3,1,6.3-0.3,8-3c1.5-2.5,3.4-4.8,5.5-6.9c7.1-7.1,16.5-11,26.6-11
		c10,0,19.5,3.9,26.6,11C456.4,73.5,456.4,97.3,441.8,112z"/>
</g>
</svg>
