<?xml version="1.0" encoding="utf-8"?>
<!-- Generator: Adobe Illustrator 23.0.1, SVG Export Plug-In . SVG Version: 6.00 Build 0)  -->
<svg version="1.1" id="Layer_1" xmlns="http://www.w3.org/2000/svg" xmlns:xlink="http://www.w3.org/1999/xlink" x="0px" y="0px"
	 viewBox="0 0 500 500" style="enable-background:new 0 0 500 500;" xml:space="preserve">
<style type="text/css">
	.st0{fill:#0061AD;}
</style>
<g>
	<path class="st0" d="M101.3,144c-5.1,0-9.2,4.1-9.2,9.2c0,5.1,4.1,9.2,9.2,9.2s9.2-4.1,9.2-9.2C110.4,148.1,106.3,144,101.3,144z"
		/>
	<path class="st0" d="M468.1,338.8l-12.5-30.6c-1.4-3.9-1-26.8-0.7-41.9c0.4-22.6,0.6-36.8-1-41.9c-4.9-15.3-14.6-27.8-27.2-36.3
		c11.4,0.4,22,5.6,29.3,14.6c1.2,1.4,2.9,2.2,4.6,2.2c1.3,0,2.6-0.4,3.7-1.3c2.5-2,2.9-5.7,0.9-8.2c-9.7-12.2-24.2-19.1-39.7-19.1
		c-0.1,0-0.2,0-0.4,0l-36,0.1c-0.3,0-0.6,0-1,0l-3.3,0.1l-0.2,0c0,0,0,0,0,0l-194.6,3l-23-26.2c10.3-14,9.6-32.8,9.6-33.7
		c-0.1-3-2.6-5.5-5.6-5.6c-0.9,0-20.1-0.7-34.1,9.9l-9.6-6.6l19.5-31.4l25.8-21.4c1.9-1.6,2.6-4.2,1.8-6.5c-0.8-2.3-3-3.9-5.5-3.9
		h-19.7c-15.7,0-30.3,7.7-39.2,20.7l-74,108c-5.5,7.8-5.9,18.1-1,26.4c4.6,7.6,12.9,12.1,21.8,11.8h16.2l15,27.6
		c1,1.9,3,3.1,5.1,3.1c2.1,0,4.1-1.2,5.1-3.1l12-22l57.6,85.9c0.4,0.6,0.6,1.2,0.6,1.9v126.2c0,3.2,2.6,5.9,5.9,5.9H194
		c2.8,0,5.2-1.9,5.7-4.6l25.3-118.6c0.3-1.5,1.6-2.5,3.3-2.5l164.7,0.1l27.4,27.4c0.7,0.8,1.1,1.8,0.9,2.9l-16.2,88.5
		c-0.3,1.7,0.1,3.5,1.3,4.8c1.1,1.3,2.8,2.1,4.5,2.1h18.7c2.5,0,4.8-1.6,5.6-4l33-99.1C468.6,341.6,468.6,340.1,468.1,338.8z
		 M425.4,434.3h-7.5l14.9-81.5c0.9-4.8-0.6-9.7-4-13.3l-29.2-29.1c-0.1-0.1-0.3-0.2-0.4-0.3c-0.1-0.1-0.2-0.2-0.3-0.3l-23.8-17.4
		c-6.8-4.9-12.3-11.1-16.5-18.4c-1.6-2.8-5.2-3.8-8-2.2c-2.8,1.6-3.8,5.2-2.2,8c5,8.7,11.7,16.1,19.8,22l9.3,6.8l-149-0.1
		c-7,0.1-13.4,4.8-14.9,11.8l-24.3,114h-9.1V314.1c0-3.1-0.9-6.1-2.6-8.6l-63-93.8c-1.1-1.7-3-2.7-5.1-2.6c-2,0.1-3.9,1.2-4.9,3
		L93,233.2l-11.2-20.5c-0.8-2.2-3-3.7-5.5-3.7l-19.9,0c-4.6,0-9.1-2.2-11.5-6.1c-2.5-4.2-2.3-9.6,0.6-13.6l74-108
		c6.7-9.7,17.7-15.6,29.5-15.6h3.5l-14.1,11.6c-0.5,0.4-0.9,0.9-1.2,1.4l-23,37c-1.6,2.7-0.9,6.1,1.6,7.9l17.9,12.4
		c2.3,1.6,5.5,1.3,7.5-0.7c6.7-6.7,16.8-8.8,23.2-9.5c-0.7,6.4-2.8,16.5-9.5,23.2c-2.2,2.2-2.3,5.7-0.3,8l28.2,32.1
		c1.1,1.3,2.7,2,4.4,2c0,0,0.1,0,0.1,0l197.5-3l4.3,0c24.6,0.4,46.1,16.3,53.6,39.8c1.1,3.5,0.7,23.5,0.5,38.1
		c-0.5,27.7-0.6,41.4,1.5,46.5l11.7,28.6L425.4,434.3z"/>
</g>
</svg>
