<?xml version="1.0" encoding="utf-8"?>
<!-- Generator: Adobe Illustrator 23.0.1, SVG Export Plug-In . SVG Version: 6.00 Build 0)  -->
<svg version="1.1" id="Layer_1" xmlns="http://www.w3.org/2000/svg" xmlns:xlink="http://www.w3.org/1999/xlink" x="0px" y="0px"
	 viewBox="0 0 500 500" style="enable-background:new 0 0 500 500;" xml:space="preserve">
<style type="text/css">
	.st0{fill:#0061AD;}
</style>
<g>
	<path class="st0" d="M436.7,63.3C406.8,33.5,365.3,17,319.8,17c-73.2,0-149.4,34.2-209,93.8c-39.4,39.4-68,86.8-82.8,137.1
		c-7.3,24.9-11,49.1-11,71.9c0,46.2,16,86.6,46.3,116.9c29.9,29.9,71.4,46.3,116.9,46.3c73.2,0,149.4-34.2,209-93.8
		c39.4-39.4,68-86.8,82.8-137.1c7.3-24.9,11-49.1,11-71.9C483,134.1,467,93.6,436.7,63.3z M457.4,247.9c-14,47.8-41.3,93-78.9,130.6
		c-55.9,55.9-130.1,89.3-198.2,89.3c-42.1,0-78.8-14.5-106.2-41.9c-27.4-27.4-41.9-64.1-41.9-106.2c0-21.4,3.5-44.1,10.4-67.6
		c14-47.9,41.3-93,78.9-130.6c55.9-55.9,130.1-89.3,198.2-89.3c42.1,0,78.8,14.5,106.2,41.9c27.4,27.4,41.9,64.1,41.9,106.2
		C467.8,201.6,464.3,224.4,457.4,247.9z"/>
	<path class="st0" d="M352.1,115c-4.1-1-8.2,1.5-9.2,5.5c-31.8,128.1-61.1,125.1-92.2,122c-43-4.4-75.9,2.6-108.5,133.4
		c-1,4.1,1.5,8.2,5.5,9.2c0.6,0.1,1.2,0.2,1.8,0.2c3.4,0,6.5-2.3,7.4-5.8c31.8-128.1,61.2-125.1,92.2-122
		c43,4.4,75.9-2.6,108.5-133.4C358.7,120.1,356.2,116,352.1,115z"/>
</g>
</svg>
